<?xml version="1.0" standalone="no"?><!-- Generator: Gravit.io --><svg xmlns="http://www.w3.org/2000/svg" xmlns:xlink="http://www.w3.org/1999/xlink" style="isolation:isolate" viewBox="753 379 1217.346 408" width="1217.346" height="408"><g id="Logo_black_blue (4)"><g id="Font_dark"><path d=" M 906.977 551.999 L 836.222 379 L 823.758 379 L 753 551.999 L 762.529 551.999 C 763.675 551.999 764.651 551.685 765.469 551.023 C 766.279 550.372 766.848 549.6 767.177 548.702 L 826.572 401.864 C 827.136 400.395 827.711 398.789 828.28 397.03 C 828.849 395.28 829.424 393.425 829.988 391.47 C 830.563 393.425 831.132 395.281 831.701 397.03 C 832.273 398.789 832.847 400.395 833.416 401.864 L 892.803 548.702 C 893.129 549.6 893.705 550.372 894.519 551.023 C 895.332 551.684 896.308 551.999 897.452 551.999 L 906.977 551.999 Z " fill="rgb(35,44,51)"/><g id="K_1_"><rect x="969.005" y="379" width="12.465" height="173.046" transform="matrix(1,0,0,1,0,0)" fill="rgb(35,44,51)"/><path d=" M 1012.805 464.921 C 1011.462 463.904 1011.011 461.358 1012.195 460.46 C 1013.375 459.563 1014.738 458.297 1016.287 456.664 L 1091.812 379 L 1081.672 379 C 1080.038 379 1078.674 379.271 1077.572 379.795 C 1076.475 380.328 1075.272 381.242 1073.968 382.548 L 1008.674 449.728 C 1008.658 449.744 1008.663 449.771 1008.643 449.787 C 1007.331 451.277 1005.988 452.576 1004.695 453.818 L 1004.189 454.341 C 1004.152 454.377 1004.121 454.393 1004.082 454.433 C 1001.166 457.266 998.75 459.856 998.75 463.502 C 998.75 465.975 1001.422 469.377 1003.912 472.018 C 1004.533 472.587 1005.168 473.178 1005.902 473.911 L 1007.341 475.384 C 1007.74 475.743 1008.036 476 1008.036 476 L 1007.955 476.014 L 1079.104 548.761 C 1080.079 549.74 1081.016 550.536 1081.913 551.148 C 1082.809 551.762 1084.313 552.062 1086.434 552.062 L 1096.577 552.062 L 1016.9 468.895 C 1015.512 467.265 1014.148 465.944 1012.805 464.921 Z " fill="rgb(35,44,51)"/></g><path d=" M 1298.656 552.046 L 1227.898 379 L 1215.432 379 L 1144.677 552.046 L 1154.205 552.046 C 1155.349 552.046 1156.327 551.724 1157.143 551.067 C 1157.953 550.417 1158.524 549.642 1158.85 548.746 L 1218.245 401.87 C 1218.809 400.403 1219.384 398.794 1219.953 397.038 C 1220.524 395.285 1221.099 393.429 1221.669 391.474 C 1222.237 393.43 1222.808 395.286 1223.376 397.038 C 1223.945 398.794 1224.52 400.403 1225.089 401.87 L 1284.48 548.746 C 1284.808 549.642 1285.376 550.417 1286.193 551.067 C 1287.006 551.724 1287.982 552.046 1289.12 552.046 L 1298.656 552.046 Z " fill="rgb(35,44,51)"/><path d=" M 1410.568 471.867 C 1416.757 471.226 1422.329 469.355 1427.396 467.128 C 1433.429 464.48 1438.58 461.096 1442.855 456.98 C 1447.136 452.861 1450.415 448.069 1452.697 442.606 C 1454.973 437.145 1456.117 431.107 1456.117 424.504 C 1456.117 409.579 1451.185 398.264 1441.329 390.562 C 1431.472 382.851 1416.558 379 1396.598 379 L 1352.486 379 L 1352.486 552.081 L 1364.951 552.081 L 1364.951 388.787 L 1396.598 388.787 C 1411.999 388.787 1423.734 391.765 1431.797 397.729 C 1439.864 403.691 1443.9 412.837 1443.9 425.171 C 1443.9 431.215 1442.797 436.65 1440.594 441.466 C 1438.396 446.289 1435.201 450.414 1431.005 453.84 C 1426.803 457.274 1421.673 459.904 1415.603 461.742 C 1412.367 462.726 1408.868 463.399 1405.18 463.855 C 1397.49 465.039 1394.919 465.398 1394.468 469.914 C 1394.316 472.808 1398.675 477.731 1399.415 478.687 L 1454.769 548.896 C 1455.665 550.043 1456.583 550.854 1457.517 551.342 C 1458.456 551.833 1459.58 552.08 1460.885 552.08 L 1471.759 552.08 L 1413.652 479.055 C 1412.105 477.019 1405.888 472.35 1410.568 471.867 Z " fill="rgb(35,44,51)"/><rect x="1531.462" y="379" width="12.584" height="173.046" transform="matrix(1,0,0,1,0,0)" fill="rgb(35,44,51)"/><path d=" M 1970.346 552.046 L 1970.346 379.079 L 1959.345 379.079 L 1959.345 524.176 C 1959.345 526.46 1959.466 528.824 1959.712 531.269 L 1847.773 381.401 C 1847.039 380.422 1846.346 379.793 1845.696 379.504 C 1845.04 379.218 1844.148 379.079 1843.005 379.079 L 1836.894 379.079 L 1836.894 552.046 L 1847.774 552.046 L 1847.774 406.461 C 1847.774 404.257 1847.648 401.936 1847.402 399.49 L 1959.84 549.602 C 1960.979 551.235 1962.479 552.045 1964.357 552.045 L 1970.346 552.045 L 1970.346 552.046 Z " fill="rgb(35,44,51)"/></g><g id="Signet"><g id="Group"><path d=" M 1748.347 401.295 L 1741.709 412.792 C 1755.42 426.159 1763.934 444.831 1763.934 465.493 C 1763.934 486.147 1755.425 504.814 1741.724 518.179 L 1748.362 529.679 C 1765.875 513.853 1776.881 490.96 1776.881 465.495 C 1776.88 440.023 1765.87 417.123 1748.347 401.295 Z " fill="rgb(3,169,244)"/><path d=" M 1618.993 447.399 C 1627.056 415.504 1655.943 391.9 1690.343 391.9 C 1697.292 391.9 1704.015 392.863 1710.39 394.664 L 1717.02 383.179 C 1708.629 380.466 1699.68 379 1690.387 379 C 1648.825 379 1614.112 408.317 1605.792 447.399 L 1618.993 447.399 Z " fill="rgb(3,169,244)"/><path d=" M 1710.405 536.316 C 1704.026 538.119 1697.3 539.085 1690.342 539.085 C 1655.943 539.085 1627.056 515.483 1618.992 483.589 L 1605.792 483.589 C 1614.111 522.671 1648.825 551.985 1690.387 551.985 C 1699.688 551.985 1708.643 550.518 1717.038 547.803 L 1710.405 536.316 Z " fill="rgb(3,169,244)"/></g></g></g><path d=" M 1352.677 634.609 L 1352.677 638.301 L 1335.134 638.301 L 1335.134 685.797 L 1330.81 685.797 L 1330.81 638.301 L 1313.302 638.301 L 1313.302 634.609 L 1352.677 634.609 L 1352.677 634.609 Z  M 1374.685 686.5 L 1374.685 686.5 L 1374.685 686.5 Q 1369.833 686.5 1365.913 684.109 L 1365.913 684.109 L 1365.913 684.109 Q 1361.993 681.719 1359.814 677.447 L 1359.814 677.447 L 1359.814 677.447 Q 1357.634 673.176 1357.634 667.867 L 1357.634 667.867 L 1357.634 666.355 L 1357.634 666.355 Q 1357.634 660.871 1359.761 656.477 L 1359.761 656.477 L 1359.761 656.477 Q 1361.888 652.082 1365.685 649.568 L 1365.685 649.568 L 1365.685 649.568 Q 1369.482 647.055 1373.911 647.055 L 1373.911 647.055 L 1373.911 647.055 Q 1380.837 647.055 1384.898 651.783 L 1384.898 651.783 L 1384.898 651.783 Q 1388.958 656.512 1388.958 664.703 L 1388.958 664.703 L 1388.958 667.059 L 1361.818 667.059 L 1361.818 667.867 L 1361.818 667.867 Q 1361.818 674.336 1365.527 678.643 L 1365.527 678.643 L 1365.527 678.643 Q 1369.236 682.949 1374.861 682.949 L 1374.861 682.949 L 1374.861 682.949 Q 1378.236 682.949 1380.819 681.719 L 1380.819 681.719 L 1380.819 681.719 Q 1383.403 680.488 1385.513 677.781 L 1385.513 677.781 L 1388.15 679.785 L 1388.15 679.785 Q 1383.509 686.5 1374.685 686.5 Z  M 1373.911 650.641 L 1373.911 650.641 L 1373.911 650.641 Q 1369.165 650.641 1365.913 654.121 L 1365.913 654.121 L 1365.913 654.121 Q 1362.661 657.602 1361.958 663.473 L 1361.958 663.473 L 1384.775 663.473 L 1384.775 663.016 L 1384.775 663.016 Q 1384.599 657.531 1381.646 654.086 L 1381.646 654.086 L 1381.646 654.086 Q 1378.693 650.641 1373.911 650.641 Z  M 1411.212 682.949 L 1411.212 682.949 L 1411.212 682.949 Q 1415.607 682.949 1418.577 680.471 L 1418.577 680.471 L 1418.577 680.471 Q 1421.548 677.992 1421.794 674.055 L 1421.794 674.055 L 1425.837 674.055 L 1425.837 674.055 Q 1425.661 677.535 1423.657 680.4 L 1423.657 680.4 L 1423.657 680.4 Q 1421.653 683.266 1418.331 684.883 L 1418.331 684.883 L 1418.331 684.883 Q 1415.009 686.5 1411.212 686.5 L 1411.212 686.5 L 1411.212 686.5 Q 1403.724 686.5 1399.347 681.297 L 1399.347 681.297 L 1399.347 681.297 Q 1394.97 676.094 1394.97 667.305 L 1394.97 667.305 L 1394.97 666.039 L 1394.97 666.039 Q 1394.97 660.414 1396.939 656.09 L 1396.939 656.09 L 1396.939 656.09 Q 1398.907 651.766 1402.581 649.41 L 1402.581 649.41 L 1402.581 649.41 Q 1406.255 647.055 1411.177 647.055 L 1411.177 647.055 L 1411.177 647.055 Q 1417.435 647.055 1421.495 650.781 L 1421.495 650.781 L 1421.495 650.781 Q 1425.556 654.508 1425.837 660.59 L 1425.837 660.59 L 1421.794 660.59 L 1421.794 660.59 Q 1421.513 656.125 1418.577 653.383 L 1418.577 653.383 L 1418.577 653.383 Q 1415.642 650.641 1411.177 650.641 L 1411.177 650.641 L 1411.177 650.641 Q 1405.482 650.641 1402.335 654.754 L 1402.335 654.754 L 1402.335 654.754 Q 1399.189 658.867 1399.189 666.285 L 1399.189 666.285 L 1399.189 667.516 L 1399.189 667.516 Q 1399.189 674.793 1402.335 678.871 L 1402.335 678.871 L 1402.335 678.871 Q 1405.482 682.949 1411.212 682.949 Z  M 1438.423 631.797 L 1438.423 654.191 L 1438.423 654.191 Q 1440.497 650.781 1443.732 648.918 L 1443.732 648.918 L 1443.732 648.918 Q 1446.966 647.055 1450.798 647.055 L 1450.798 647.055 L 1450.798 647.055 Q 1456.915 647.055 1459.903 650.5 L 1459.903 650.5 L 1459.903 650.5 Q 1462.892 653.945 1462.927 660.836 L 1462.927 660.836 L 1462.927 685.797 L 1458.743 685.797 L 1458.743 660.801 L 1458.743 660.801 Q 1458.708 655.703 1456.581 653.207 L 1456.581 653.207 L 1456.581 653.207 Q 1454.454 650.711 1449.778 650.711 L 1449.778 650.711 L 1449.778 650.711 Q 1445.876 650.711 1442.87 653.154 L 1442.87 653.154 L 1442.87 653.154 Q 1439.864 655.598 1438.423 659.746 L 1438.423 659.746 L 1438.423 685.797 L 1434.239 685.797 L 1434.239 631.797 L 1438.423 631.797 L 1438.423 631.797 Z  M 1473.755 647.758 L 1477.763 647.758 L 1477.903 654.262 L 1477.903 654.262 Q 1480.048 650.746 1483.247 648.9 L 1483.247 648.9 L 1483.247 648.9 Q 1486.446 647.055 1490.314 647.055 L 1490.314 647.055 L 1490.314 647.055 Q 1496.431 647.055 1499.419 650.5 L 1499.419 650.5 L 1499.419 650.5 Q 1502.407 653.945 1502.443 660.836 L 1502.443 660.836 L 1502.443 685.797 L 1498.259 685.797 L 1498.259 660.801 L 1498.259 660.801 Q 1498.224 655.703 1496.097 653.207 L 1496.097 653.207 L 1496.097 653.207 Q 1493.97 650.711 1489.294 650.711 L 1489.294 650.711 L 1489.294 650.711 Q 1485.392 650.711 1482.386 653.154 L 1482.386 653.154 L 1482.386 653.154 Q 1479.38 655.598 1477.939 659.746 L 1477.939 659.746 L 1477.939 685.797 L 1473.755 685.797 L 1473.755 647.758 L 1473.755 647.758 Z  M 1510.986 667.059 L 1510.986 666.215 L 1510.986 666.215 Q 1510.986 660.73 1513.112 656.336 L 1513.112 656.336 L 1513.112 656.336 Q 1515.239 651.941 1519.124 649.498 L 1519.124 649.498 L 1519.124 649.498 Q 1523.009 647.055 1527.931 647.055 L 1527.931 647.055 L 1527.931 647.055 Q 1535.525 647.055 1540.236 652.381 L 1540.236 652.381 L 1540.236 652.381 Q 1544.946 657.707 1544.946 666.496 L 1544.946 666.496 L 1544.946 667.375 L 1544.946 667.375 Q 1544.946 672.895 1542.819 677.307 L 1542.819 677.307 L 1542.819 677.307 Q 1540.693 681.719 1536.825 684.109 L 1536.825 684.109 L 1536.825 684.109 Q 1532.958 686.5 1528.001 686.5 L 1528.001 686.5 L 1528.001 686.5 Q 1520.443 686.5 1515.714 681.174 L 1515.714 681.174 L 1515.714 681.174 Q 1510.986 675.848 1510.986 667.059 L 1510.986 667.059 L 1510.986 667.059 Z  M 1515.204 666.602 L 1515.204 667.375 L 1515.204 667.375 Q 1515.204 674.195 1518.737 678.572 L 1518.737 678.572 L 1518.737 678.572 Q 1522.271 682.949 1528.001 682.949 L 1528.001 682.949 L 1528.001 682.949 Q 1533.696 682.949 1537.23 678.572 L 1537.23 678.572 L 1537.23 678.572 Q 1540.763 674.195 1540.763 667.023 L 1540.763 667.023 L 1540.763 666.215 L 1540.763 666.215 Q 1540.763 661.855 1539.146 658.234 L 1539.146 658.234 L 1539.146 658.234 Q 1537.528 654.613 1534.611 652.627 L 1534.611 652.627 L 1534.611 652.627 Q 1531.693 650.641 1527.931 650.641 L 1527.931 650.641 L 1527.931 650.641 Q 1522.306 650.641 1518.755 655.053 L 1518.755 655.053 L 1518.755 655.053 Q 1515.204 659.465 1515.204 666.602 L 1515.204 666.602 L 1515.204 666.602 Z  M 1558.341 631.797 L 1558.341 685.797 L 1554.122 685.797 L 1554.122 631.797 L 1558.341 631.797 L 1558.341 631.797 Z  M 1567.446 667.059 L 1567.446 666.215 L 1567.446 666.215 Q 1567.446 660.73 1569.573 656.336 L 1569.573 656.336 L 1569.573 656.336 Q 1571.7 651.941 1575.585 649.498 L 1575.585 649.498 L 1575.585 649.498 Q 1579.47 647.055 1584.392 647.055 L 1584.392 647.055 L 1584.392 647.055 Q 1591.986 647.055 1596.696 652.381 L 1596.696 652.381 L 1596.696 652.381 Q 1601.407 657.707 1601.407 666.496 L 1601.407 666.496 L 1601.407 667.375 L 1601.407 667.375 Q 1601.407 672.895 1599.28 677.307 L 1599.28 677.307 L 1599.28 677.307 Q 1597.153 681.719 1593.286 684.109 L 1593.286 684.109 L 1593.286 684.109 Q 1589.419 686.5 1584.462 686.5 L 1584.462 686.5 L 1584.462 686.5 Q 1576.903 686.5 1572.175 681.174 L 1572.175 681.174 L 1572.175 681.174 Q 1567.446 675.848 1567.446 667.059 L 1567.446 667.059 L 1567.446 667.059 Z  M 1571.665 666.602 L 1571.665 667.375 L 1571.665 667.375 Q 1571.665 674.195 1575.198 678.572 L 1575.198 678.572 L 1575.198 678.572 Q 1578.732 682.949 1584.462 682.949 L 1584.462 682.949 L 1584.462 682.949 Q 1590.157 682.949 1593.691 678.572 L 1593.691 678.572 L 1593.691 678.572 Q 1597.224 674.195 1597.224 667.023 L 1597.224 667.023 L 1597.224 666.215 L 1597.224 666.215 Q 1597.224 661.855 1595.607 658.234 L 1595.607 658.234 L 1595.607 658.234 Q 1593.989 654.613 1591.071 652.627 L 1591.071 652.627 L 1591.071 652.627 Q 1588.153 650.641 1584.392 650.641 L 1584.392 650.641 L 1584.392 650.641 Q 1578.767 650.641 1575.216 655.053 L 1575.216 655.053 L 1575.216 655.053 Q 1571.665 659.465 1571.665 666.602 L 1571.665 666.602 L 1571.665 666.602 Z  M 1608.403 666.988 L 1608.403 666.426 L 1608.403 666.426 Q 1608.403 657.496 1612.359 652.275 L 1612.359 652.275 L 1612.359 652.275 Q 1616.314 647.055 1623.099 647.055 L 1623.099 647.055 L 1623.099 647.055 Q 1630.868 647.055 1634.911 653.242 L 1634.911 653.242 L 1635.122 647.758 L 1639.06 647.758 L 1639.06 685.023 L 1639.06 685.023 Q 1639.06 692.371 1634.946 696.66 L 1634.946 696.66 L 1634.946 696.66 Q 1630.833 700.949 1623.802 700.949 L 1623.802 700.949 L 1623.802 700.949 Q 1619.829 700.949 1616.226 699.174 L 1616.226 699.174 L 1616.226 699.174 Q 1612.622 697.398 1610.548 694.445 L 1610.548 694.445 L 1612.903 691.914 L 1612.903 691.914 Q 1617.368 697.398 1623.521 697.398 L 1623.521 697.398 L 1623.521 697.398 Q 1628.794 697.398 1631.747 694.287 L 1631.747 694.287 L 1631.747 694.287 Q 1634.7 691.176 1634.806 685.656 L 1634.806 685.656 L 1634.806 680.875 L 1634.806 680.875 Q 1630.763 686.5 1623.028 686.5 L 1623.028 686.5 L 1623.028 686.5 Q 1616.419 686.5 1612.411 681.227 L 1612.411 681.227 L 1612.411 681.227 Q 1608.403 675.953 1608.403 666.988 L 1608.403 666.988 L 1608.403 666.988 Z  M 1612.657 667.164 L 1612.657 667.164 L 1612.657 667.164 Q 1612.657 674.441 1615.575 678.643 L 1615.575 678.643 L 1615.575 678.643 Q 1618.493 682.844 1623.802 682.844 L 1623.802 682.844 L 1623.802 682.844 Q 1631.571 682.844 1634.806 675.883 L 1634.806 675.883 L 1634.806 658.199 L 1634.806 658.199 Q 1633.329 654.543 1630.552 652.627 L 1630.552 652.627 L 1630.552 652.627 Q 1627.775 650.711 1623.872 650.711 L 1623.872 650.711 L 1623.872 650.711 Q 1618.564 650.711 1615.611 654.877 L 1615.611 654.877 L 1615.611 654.877 Q 1612.657 659.043 1612.657 667.164 Z  M 1654.739 647.758 L 1654.739 685.797 L 1650.521 685.797 L 1650.521 647.758 L 1654.739 647.758 L 1654.739 647.758 Z  M 1649.782 636.754 L 1649.782 636.754 L 1649.782 636.754 Q 1649.782 635.559 1650.556 634.732 L 1650.556 634.732 L 1650.556 634.732 Q 1651.329 633.906 1652.665 633.906 L 1652.665 633.906 L 1652.665 633.906 Q 1654.001 633.906 1654.792 634.732 L 1654.792 634.732 L 1654.792 634.732 Q 1655.583 635.559 1655.583 636.754 L 1655.583 636.754 L 1655.583 636.754 Q 1655.583 637.949 1654.792 638.758 L 1654.792 638.758 L 1654.792 638.758 Q 1654.001 639.566 1652.665 639.566 L 1652.665 639.566 L 1652.665 639.566 Q 1651.329 639.566 1650.556 638.758 L 1650.556 638.758 L 1650.556 638.758 Q 1649.782 637.949 1649.782 636.754 Z  M 1680.896 686.5 L 1680.896 686.5 L 1680.896 686.5 Q 1676.044 686.5 1672.124 684.109 L 1672.124 684.109 L 1672.124 684.109 Q 1668.204 681.719 1666.025 677.447 L 1666.025 677.447 L 1666.025 677.447 Q 1663.845 673.176 1663.845 667.867 L 1663.845 667.867 L 1663.845 666.355 L 1663.845 666.355 Q 1663.845 660.871 1665.972 656.477 L 1665.972 656.477 L 1665.972 656.477 Q 1668.099 652.082 1671.896 649.568 L 1671.896 649.568 L 1671.896 649.568 Q 1675.693 647.055 1680.122 647.055 L 1680.122 647.055 L 1680.122 647.055 Q 1687.048 647.055 1691.109 651.783 L 1691.109 651.783 L 1691.109 651.783 Q 1695.169 656.512 1695.169 664.703 L 1695.169 664.703 L 1695.169 667.059 L 1668.028 667.059 L 1668.028 667.867 L 1668.028 667.867 Q 1668.028 674.336 1671.737 678.643 L 1671.737 678.643 L 1671.737 678.643 Q 1675.446 682.949 1681.071 682.949 L 1681.071 682.949 L 1681.071 682.949 Q 1684.446 682.949 1687.03 681.719 L 1687.03 681.719 L 1687.03 681.719 Q 1689.614 680.488 1691.724 677.781 L 1691.724 677.781 L 1694.361 679.785 L 1694.361 679.785 Q 1689.72 686.5 1680.896 686.5 Z  M 1680.122 650.641 L 1680.122 650.641 L 1680.122 650.641 Q 1675.376 650.641 1672.124 654.121 L 1672.124 654.121 L 1672.124 654.121 Q 1668.872 657.602 1668.169 663.473 L 1668.169 663.473 L 1690.986 663.473 L 1690.986 663.016 L 1690.986 663.016 Q 1690.81 657.531 1687.857 654.086 L 1687.857 654.086 L 1687.857 654.086 Q 1684.903 650.641 1680.122 650.641 Z  M 1726.142 676.129 L 1726.142 676.129 L 1726.142 676.129 Q 1726.142 673 1723.628 671.102 L 1723.628 671.102 L 1723.628 671.102 Q 1721.114 669.203 1716.052 668.131 L 1716.052 668.131 L 1716.052 668.131 Q 1710.989 667.059 1708.194 665.67 L 1708.194 665.67 L 1708.194 665.67 Q 1705.4 664.281 1704.046 662.277 L 1704.046 662.277 L 1704.046 662.277 Q 1702.693 660.273 1702.693 657.426 L 1702.693 657.426 L 1702.693 657.426 Q 1702.693 652.926 1706.454 649.99 L 1706.454 649.99 L 1706.454 649.99 Q 1710.216 647.055 1716.087 647.055 L 1716.087 647.055 L 1716.087 647.055 Q 1722.45 647.055 1726.3 650.201 L 1726.3 650.201 L 1726.3 650.201 Q 1730.15 653.348 1730.15 658.41 L 1730.15 658.41 L 1725.931 658.41 L 1725.931 658.41 Q 1725.931 655.07 1723.136 652.855 L 1723.136 652.855 L 1723.136 652.855 Q 1720.341 650.641 1716.087 650.641 L 1716.087 650.641 L 1716.087 650.641 Q 1711.939 650.641 1709.425 652.486 L 1709.425 652.486 L 1709.425 652.486 Q 1706.911 654.332 1706.911 657.285 L 1706.911 657.285 L 1706.911 657.285 Q 1706.911 660.133 1709.003 661.697 L 1709.003 661.697 L 1709.003 661.697 Q 1711.095 663.262 1716.632 664.563 L 1716.632 664.563 L 1716.632 664.563 Q 1722.169 665.863 1724.929 667.34 L 1724.929 667.34 L 1724.929 667.34 Q 1727.689 668.816 1729.025 670.891 L 1729.025 670.891 L 1729.025 670.891 Q 1730.361 672.965 1730.361 675.918 L 1730.361 675.918 L 1730.361 675.918 Q 1730.361 680.734 1726.476 683.617 L 1726.476 683.617 L 1726.476 683.617 Q 1722.591 686.5 1716.333 686.5 L 1716.333 686.5 L 1716.333 686.5 Q 1709.689 686.5 1705.558 683.283 L 1705.558 683.283 L 1705.558 683.283 Q 1701.427 680.066 1701.427 675.145 L 1701.427 675.145 L 1705.646 675.145 L 1705.646 675.145 Q 1705.892 678.836 1708.757 680.893 L 1708.757 680.893 L 1708.757 680.893 Q 1711.622 682.949 1716.333 682.949 L 1716.333 682.949 L 1716.333 682.949 Q 1720.728 682.949 1723.435 681.016 L 1723.435 681.016 L 1723.435 681.016 Q 1726.142 679.082 1726.142 676.129 Z  M 973.763 685.797 L 956.642 685.797 L 956.642 634.609 L 971.759 634.609 L 971.759 634.609 Q 979.986 634.609 984.239 638.002 L 984.239 638.002 L 984.239 638.002 Q 988.493 641.395 988.493 648.004 L 988.493 648.004 L 988.493 648.004 Q 988.493 651.977 986.331 654.912 L 986.331 654.912 L 986.331 654.912 Q 984.169 657.848 980.407 659.113 L 980.407 659.113 L 980.407 659.113 Q 984.872 660.098 987.597 663.508 L 987.597 663.508 L 987.597 663.508 Q 990.321 666.918 990.321 671.383 L 990.321 671.383 L 990.321 671.383 Q 990.321 678.168 985.944 681.982 L 985.944 681.982 L 985.944 681.982 Q 981.568 685.797 973.763 685.797 L 973.763 685.797 L 973.763 685.797 Z  M 974.29 661.188 L 960.966 661.188 L 960.966 682.141 L 973.939 682.141 L 973.939 682.141 Q 979.493 682.141 982.745 679.311 L 982.745 679.311 L 982.745 679.311 Q 985.997 676.48 985.997 671.453 L 985.997 671.453 L 985.997 671.453 Q 985.997 666.707 982.886 663.947 L 982.886 663.947 L 982.886 663.947 Q 979.775 661.188 974.29 661.188 L 974.29 661.188 L 974.29 661.188 Z  M 960.966 638.301 L 960.966 657.566 L 972.778 657.566 L 972.778 657.566 Q 978.193 657.461 981.163 655.018 L 981.163 655.018 L 981.163 655.018 Q 984.134 652.574 984.134 647.898 L 984.134 647.898 L 984.134 647.898 Q 984.134 642.977 981.058 640.639 L 981.058 640.639 L 981.058 640.639 Q 977.982 638.301 971.759 638.301 L 971.759 638.301 L 960.966 638.301 L 960.966 638.301 Z  M 1004.489 631.797 L 1004.489 685.797 L 1000.271 685.797 L 1000.271 631.797 L 1004.489 631.797 L 1004.489 631.797 Z  M 1013.595 667.059 L 1013.595 666.215 L 1013.595 666.215 Q 1013.595 660.73 1015.722 656.336 L 1015.722 656.336 L 1015.722 656.336 Q 1017.849 651.941 1021.734 649.498 L 1021.734 649.498 L 1021.734 649.498 Q 1025.618 647.055 1030.54 647.055 L 1030.54 647.055 L 1030.54 647.055 Q 1038.134 647.055 1042.845 652.381 L 1042.845 652.381 L 1042.845 652.381 Q 1047.556 657.707 1047.556 666.496 L 1047.556 666.496 L 1047.556 667.375 L 1047.556 667.375 Q 1047.556 672.895 1045.429 677.307 L 1045.429 677.307 L 1045.429 677.307 Q 1043.302 681.719 1039.435 684.109 L 1039.435 684.109 L 1039.435 684.109 Q 1035.568 686.5 1030.611 686.5 L 1030.611 686.5 L 1030.611 686.5 Q 1023.052 686.5 1018.323 681.174 L 1018.323 681.174 L 1018.323 681.174 Q 1013.595 675.848 1013.595 667.059 L 1013.595 667.059 L 1013.595 667.059 Z  M 1017.814 666.602 L 1017.814 667.375 L 1017.814 667.375 Q 1017.814 674.195 1021.347 678.572 L 1021.347 678.572 L 1021.347 678.572 Q 1024.88 682.949 1030.611 682.949 L 1030.611 682.949 L 1030.611 682.949 Q 1036.306 682.949 1039.839 678.572 L 1039.839 678.572 L 1039.839 678.572 Q 1043.372 674.195 1043.372 667.023 L 1043.372 667.023 L 1043.372 666.215 L 1043.372 666.215 Q 1043.372 661.855 1041.755 658.234 L 1041.755 658.234 L 1041.755 658.234 Q 1040.138 654.613 1037.22 652.627 L 1037.22 652.627 L 1037.22 652.627 Q 1034.302 650.641 1030.54 650.641 L 1030.54 650.641 L 1030.54 650.641 Q 1024.915 650.641 1021.364 655.053 L 1021.364 655.053 L 1021.364 655.053 Q 1017.814 659.465 1017.814 666.602 L 1017.814 666.602 L 1017.814 666.602 Z  M 1070.302 682.949 L 1070.302 682.949 L 1070.302 682.949 Q 1074.696 682.949 1077.667 680.471 L 1077.667 680.471 L 1077.667 680.471 Q 1080.638 677.992 1080.884 674.055 L 1080.884 674.055 L 1084.927 674.055 L 1084.927 674.055 Q 1084.751 677.535 1082.747 680.4 L 1082.747 680.4 L 1082.747 680.4 Q 1080.743 683.266 1077.421 684.883 L 1077.421 684.883 L 1077.421 684.883 Q 1074.099 686.5 1070.302 686.5 L 1070.302 686.5 L 1070.302 686.5 Q 1062.814 686.5 1058.437 681.297 L 1058.437 681.297 L 1058.437 681.297 Q 1054.06 676.094 1054.06 667.305 L 1054.06 667.305 L 1054.06 666.039 L 1054.06 666.039 Q 1054.06 660.414 1056.028 656.09 L 1056.028 656.09 L 1056.028 656.09 Q 1057.997 651.766 1061.671 649.41 L 1061.671 649.41 L 1061.671 649.41 Q 1065.345 647.055 1070.267 647.055 L 1070.267 647.055 L 1070.267 647.055 Q 1076.525 647.055 1080.585 650.781 L 1080.585 650.781 L 1080.585 650.781 Q 1084.646 654.508 1084.927 660.59 L 1084.927 660.59 L 1080.884 660.59 L 1080.884 660.59 Q 1080.603 656.125 1077.667 653.383 L 1077.667 653.383 L 1077.667 653.383 Q 1074.732 650.641 1070.267 650.641 L 1070.267 650.641 L 1070.267 650.641 Q 1064.571 650.641 1061.425 654.754 L 1061.425 654.754 L 1061.425 654.754 Q 1058.278 658.867 1058.278 666.285 L 1058.278 666.285 L 1058.278 667.516 L 1058.278 667.516 Q 1058.278 674.793 1061.425 678.871 L 1061.425 678.871 L 1061.425 678.871 Q 1064.571 682.949 1070.302 682.949 Z  M 1117.763 685.797 L 1102.364 666.637 L 1097.548 671.277 L 1097.548 685.797 L 1093.329 685.797 L 1093.329 631.797 L 1097.548 631.797 L 1097.548 666.355 L 1101.521 662.066 L 1116.075 647.758 L 1121.384 647.758 L 1105.247 663.789 L 1122.79 685.797 L 1117.763 685.797 L 1117.763 685.797 Z  M 1142.653 682.949 L 1142.653 682.949 L 1142.653 682.949 Q 1147.048 682.949 1150.019 680.471 L 1150.019 680.471 L 1150.019 680.471 Q 1152.989 677.992 1153.236 674.055 L 1153.236 674.055 L 1157.278 674.055 L 1157.278 674.055 Q 1157.103 677.535 1155.099 680.4 L 1155.099 680.4 L 1155.099 680.4 Q 1153.095 683.266 1149.773 684.883 L 1149.773 684.883 L 1149.773 684.883 Q 1146.45 686.5 1142.653 686.5 L 1142.653 686.5 L 1142.653 686.5 Q 1135.165 686.5 1130.788 681.297 L 1130.788 681.297 L 1130.788 681.297 Q 1126.411 676.094 1126.411 667.305 L 1126.411 667.305 L 1126.411 666.039 L 1126.411 666.039 Q 1126.411 660.414 1128.38 656.09 L 1128.38 656.09 L 1128.38 656.09 Q 1130.349 651.766 1134.023 649.41 L 1134.023 649.41 L 1134.023 649.41 Q 1137.696 647.055 1142.618 647.055 L 1142.618 647.055 L 1142.618 647.055 Q 1148.876 647.055 1152.937 650.781 L 1152.937 650.781 L 1152.937 650.781 Q 1156.997 654.508 1157.278 660.59 L 1157.278 660.59 L 1153.236 660.59 L 1153.236 660.59 Q 1152.954 656.125 1150.019 653.383 L 1150.019 653.383 L 1150.019 653.383 Q 1147.083 650.641 1142.618 650.641 L 1142.618 650.641 L 1142.618 650.641 Q 1136.923 650.641 1133.777 654.754 L 1133.777 654.754 L 1133.777 654.754 Q 1130.63 658.867 1130.63 666.285 L 1130.63 666.285 L 1130.63 667.516 L 1130.63 667.516 Q 1130.63 674.793 1133.777 678.871 L 1133.777 678.871 L 1133.777 678.871 Q 1136.923 682.949 1142.653 682.949 Z  M 1169.864 631.797 L 1169.864 654.191 L 1169.864 654.191 Q 1171.939 650.781 1175.173 648.918 L 1175.173 648.918 L 1175.173 648.918 Q 1178.407 647.055 1182.239 647.055 L 1182.239 647.055 L 1182.239 647.055 Q 1188.357 647.055 1191.345 650.5 L 1191.345 650.5 L 1191.345 650.5 Q 1194.333 653.945 1194.368 660.836 L 1194.368 660.836 L 1194.368 685.797 L 1190.185 685.797 L 1190.185 660.801 L 1190.185 660.801 Q 1190.15 655.703 1188.023 653.207 L 1188.023 653.207 L 1188.023 653.207 Q 1185.896 650.711 1181.22 650.711 L 1181.22 650.711 L 1181.22 650.711 Q 1177.318 650.711 1174.312 653.154 L 1174.312 653.154 L 1174.312 653.154 Q 1171.306 655.598 1169.864 659.746 L 1169.864 659.746 L 1169.864 685.797 L 1165.681 685.797 L 1165.681 631.797 L 1169.864 631.797 L 1169.864 631.797 Z  M 1233.708 685.797 L 1229.208 685.797 L 1229.208 685.797 Q 1228.575 684.004 1228.4 680.488 L 1228.4 680.488 L 1228.4 680.488 Q 1226.185 683.371 1222.757 684.936 L 1222.757 684.936 L 1222.757 684.936 Q 1219.329 686.5 1215.497 686.5 L 1215.497 686.5 L 1215.497 686.5 Q 1210.013 686.5 1206.62 683.441 L 1206.62 683.441 L 1206.62 683.441 Q 1203.228 680.383 1203.228 675.707 L 1203.228 675.707 L 1203.228 675.707 Q 1203.228 670.152 1207.851 666.918 L 1207.851 666.918 L 1207.851 666.918 Q 1212.474 663.684 1220.736 663.684 L 1220.736 663.684 L 1228.364 663.684 L 1228.364 659.359 L 1228.364 659.359 Q 1228.364 655.281 1225.851 652.943 L 1225.851 652.943 L 1225.851 652.943 Q 1223.337 650.605 1218.521 650.605 L 1218.521 650.605 L 1218.521 650.605 Q 1214.126 650.605 1211.243 652.855 L 1211.243 652.855 L 1211.243 652.855 Q 1208.361 655.105 1208.361 658.27 L 1208.361 658.27 L 1204.142 658.234 L 1204.142 658.234 Q 1204.142 653.699 1208.361 650.377 L 1208.361 650.377 L 1208.361 650.377 Q 1212.579 647.055 1218.732 647.055 L 1218.732 647.055 L 1218.732 647.055 Q 1225.095 647.055 1228.769 650.236 L 1228.769 650.236 L 1228.769 650.236 Q 1232.443 653.418 1232.548 659.113 L 1232.548 659.113 L 1232.548 677.113 L 1232.548 677.113 Q 1232.548 682.633 1233.708 685.375 L 1233.708 685.375 L 1233.708 685.797 L 1233.708 685.797 Z  M 1215.989 682.773 L 1215.989 682.773 L 1215.989 682.773 Q 1220.208 682.773 1223.53 680.734 L 1223.53 680.734 L 1223.53 680.734 Q 1226.853 678.695 1228.364 675.285 L 1228.364 675.285 L 1228.364 666.918 L 1220.841 666.918 L 1220.841 666.918 Q 1214.548 666.988 1210.997 669.221 L 1210.997 669.221 L 1210.997 669.221 Q 1207.446 671.453 1207.446 675.355 L 1207.446 675.355 L 1207.446 675.355 Q 1207.446 678.555 1209.819 680.664 L 1209.819 680.664 L 1209.819 680.664 Q 1212.193 682.773 1215.989 682.773 Z  M 1248.474 647.758 L 1248.474 685.797 L 1244.255 685.797 L 1244.255 647.758 L 1248.474 647.758 L 1248.474 647.758 Z  M 1243.517 636.754 L 1243.517 636.754 L 1243.517 636.754 Q 1243.517 635.559 1244.29 634.732 L 1244.29 634.732 L 1244.29 634.732 Q 1245.064 633.906 1246.4 633.906 L 1246.4 633.906 L 1246.4 633.906 Q 1247.736 633.906 1248.527 634.732 L 1248.527 634.732 L 1248.527 634.732 Q 1249.318 635.559 1249.318 636.754 L 1249.318 636.754 L 1249.318 636.754 Q 1249.318 637.949 1248.527 638.758 L 1248.527 638.758 L 1248.527 638.758 Q 1247.736 639.566 1246.4 639.566 L 1246.4 639.566 L 1246.4 639.566 Q 1245.064 639.566 1244.29 638.758 L 1244.29 638.758 L 1244.29 638.758 Q 1243.517 637.949 1243.517 636.754 Z  M 1259.9 647.758 L 1263.907 647.758 L 1264.048 654.262 L 1264.048 654.262 Q 1266.193 650.746 1269.392 648.9 L 1269.392 648.9 L 1269.392 648.9 Q 1272.591 647.055 1276.458 647.055 L 1276.458 647.055 L 1276.458 647.055 Q 1282.575 647.055 1285.564 650.5 L 1285.564 650.5 L 1285.564 650.5 Q 1288.552 653.945 1288.587 660.836 L 1288.587 660.836 L 1288.587 685.797 L 1284.403 685.797 L 1284.403 660.801 L 1284.403 660.801 Q 1284.368 655.703 1282.241 653.207 L 1282.241 653.207 L 1282.241 653.207 Q 1280.114 650.711 1275.439 650.711 L 1275.439 650.711 L 1275.439 650.711 Q 1271.536 650.711 1268.53 653.154 L 1268.53 653.154 L 1268.53 653.154 Q 1265.525 655.598 1264.083 659.746 L 1264.083 659.746 L 1264.083 685.797 L 1259.9 685.797 L 1259.9 647.758 L 1259.9 647.758 Z " fill-rule="evenodd" fill="rgb(16,26,35)"/></svg>