<?xml version="1.0" encoding="UTF-8" standalone="no"?>
<!DOCTYPE svg PUBLIC "-//W3C//DTD SVG 1.1//EN" "http://www.w3.org/Graphics/SVG/1.1/DTD/svg11.dtd">
<svg width="100%" height="100%" viewBox="0 0 1000 423" version="1.1" xmlns="http://www.w3.org/2000/svg" xmlns:xlink="http://www.w3.org/1999/xlink" xml:space="preserve" xmlns:serif="http://www.serif.com/" style="fill-rule:evenodd;clip-rule:evenodd;stroke-linejoin:round;stroke-miterlimit:1.41421;">
    <path id="BoundingBox" d="M0,423L1000,423L1000,0L0,0L0,423Z" style="fill:none;"/>
    <g id="Ingenuity_for_life" transform="matrix(1.20868,0,0,1.20868,-117.158,-78.8295)">
        <path d="M348.543,317.098L348.596,317.994C348.766,320.789 348.877,323.512 348.925,326.092L348.928,326.285L348.768,326.392C336.655,334.509 329.126,343.271 325.751,353.169C323.136,360.839 323.572,368.204 326.915,372.876C329.194,376.062 332.605,377.745 336.778,377.745C343.97,377.745 349.64,372.28 353.63,361.5C357.769,350.321 359.09,336.144 359.469,326.22L359.478,326.032L359.638,325.932C364.914,322.692 371.131,319.477 378.111,316.375L378.38,316.254L378.546,316.499C381.713,321.16 388.916,325.88 396.555,325.88C405.975,325.88 415.16,318.602 418.672,315.475L419.134,315.063L419.253,315.67C419.811,318.514 421.439,320.736 424.23,322.466C428.803,325.301 432.397,325.35 435.17,322.565C437.227,320.498 438.846,318.601 440.274,316.93C442.699,314.09 444.792,311.639 448.103,309.34C449.528,308.344 450.949,308.736 451.886,310.34C457.539,320.01 464.03,325.386 470.655,325.883C472.633,326.024 474.243,325.445 474.5,324.549C474.672,323.947 474.173,323.227 473.131,322.578C468.903,319.945 465.255,314.639 461.979,306.351C460.861,303.539 459.371,301.749 454.324,299.781C453.368,299.41 452.507,299.226 451.694,299.226C449.994,299.226 448.797,300.039 447.637,300.826L447.33,301.032C443.846,303.366 439.656,307.719 436.599,310.896C435.211,312.34 434.01,313.587 433.235,314.266C431.905,315.432 430.909,315.658 430.314,315.038C429.861,314.569 429.793,313.735 429.814,313.116C429.988,308.391 431.316,303.598 434.119,297.572C434.605,296.524 434.67,295.563 434.312,294.716C433.823,293.556 432.542,292.585 430.612,291.911C429.383,291.479 428.355,291.27 427.465,291.27C425.148,291.27 424.069,292.754 423.164,294.981C421.522,299.017 420.641,302.215 419.795,307.203L419.775,307.317L419.692,307.395C411.291,315.612 403.859,319.779 397.604,319.779C392.714,319.779 389.531,316.944 388.873,312.001L388.839,311.74L389.078,311.632C395.987,308.516 402.831,305.085 406.083,301.116C408.455,298.216 408.005,295.61 407.211,293.934C405.726,290.799 401.737,288.344 398.128,288.344C393.563,288.344 376.787,296.791 376.756,311.547L376.754,311.777L376.544,311.87C372.506,313.631 366.446,316.335 360.461,319.487L359.867,319.8L359.948,319.134C360.959,310.681 363.355,303.876 364.48,301.46C365.236,299.839 365.435,298.739 365.123,297.898C364.801,297.025 363.917,296.328 362.074,295.49C359.759,294.439 357.401,294.689 355.707,296.128L355.394,296.393L355.179,296.043C355.158,296.011 353.064,292.707 348.771,292.707C339.934,292.707 326.938,307.924 325.982,313.915C325.732,315.48 326.238,317.016 327.484,318.477C329.847,321.248 334.71,323.307 338.453,323.086C342.191,322.861 346.01,320.184 347.975,317.787L348.543,317.098ZM595.172,317.432L594.932,317.948C592.983,322.059 591.121,326.563 589.151,331.331C583.647,344.675 577.403,359.796 565.807,374.979C565.276,375.676 565.112,376.319 565.346,376.791C565.567,377.244 566.158,377.515 566.916,377.515C567.728,377.515 568.66,377.208 569.531,376.652C577.289,371.711 588.324,355.148 599.802,331.214C608.459,313.185 614.072,307.193 618.577,302.379C619.121,301.798 619.652,301.232 620.169,300.663C620.868,299.898 621.134,299.163 620.961,298.48C620.672,297.364 619.225,296.301 616.883,295.491C613.645,294.37 611.178,294.792 609.393,296.798L609.18,297.042C603.309,303.704 595.585,311.644 592.159,311.644C591.28,311.644 590.554,311.341 590.007,310.748C588.353,308.955 588.673,304.971 588.907,302.062C588.948,301.56 588.987,301.101 589.007,300.708C589.138,298.212 587.757,296.933 584.232,296.293C581.552,295.806 572.668,295.243 565.877,294.911L565.471,294.891L565.547,294.493C567.477,284.302 570.632,274.356 573.399,269.743C574.442,268.003 575.211,266.595 574.807,265.618C574.473,264.806 573.286,264.165 571.077,263.606C570.184,263.377 569.358,263.264 568.614,263.264C565.028,263.264 563.942,265.944 563.219,267.719C559.907,275.885 557.334,285.28 555.955,294.207L555.908,294.514L555.597,294.508C553.792,294.457 552.283,294.438 551.228,294.454C550.009,294.47 549.269,294.705 548.963,295.176C548.679,295.614 548.744,296.322 549.157,297.284C549.796,298.763 551.37,301.39 554.727,302.344L555.003,302.421L554.982,302.709C554.837,304.725 554.761,306.724 554.748,308.649C554.672,318.498 557.629,324.304 563.303,325.443C563.526,325.488 563.782,325.509 564.047,325.509C564.794,325.509 565.779,325.312 566.104,324.753C566.299,324.419 566.235,323.962 565.915,323.398C563.087,318.406 563.513,309.023 564.368,302.031L564.399,301.764L564.664,301.724C568.385,301.177 573.069,300.537 576.308,300.478L576.406,300.478C577.15,300.478 577.674,300.648 578.004,301.001C578.436,301.455 578.459,302.122 578.418,302.772C578.328,304.257 578.301,309.394 581.856,313.176C584.633,316.127 588.926,317.574 594.606,317.442L595.172,317.432ZM335.643,373.084C334.294,373.084 333.156,372.479 332.353,371.333C331.118,369.572 329.644,364.967 333.647,353.897C336.248,346.709 341.047,340.212 348.316,334.038L348.919,333.527L348.898,334.317C348.263,357.141 342.812,373.084 335.643,373.084ZM843.866,313.318L843.801,313.734C842.054,324.671 841.303,335.016 841.792,341.41C842.45,349.957 845.154,352.428 847.132,353.547C848.744,354.459 850.35,354.736 850.908,354.115C851.183,353.804 851.28,353.269 851.19,352.519C849.991,342.179 850.921,327.445 853.74,312.092L853.781,311.86L854.015,311.81C858.701,310.838 863.73,309.558 868.181,308.206L868.704,308.048L868.636,308.589C868.198,312.032 869.735,316.036 872.853,319.573C878.689,326.198 888.697,329.998 900.306,329.998C907.09,329.998 912.978,327.345 914.99,325.459C915.851,324.656 916.131,323.749 915.951,323.304C915.8,322.917 915.245,322.824 914.442,323.052C910.177,324.251 905.953,324.86 901.895,324.86C892.666,324.86 885.324,321.71 881.751,316.218L881.44,315.739L882.008,315.675C889.092,314.859 897.718,310.79 899.093,307.613C900.302,304.826 899.365,302.431 898.365,300.914C896.195,297.604 891.681,295.205 887.637,295.205C882.552,295.205 876.31,297.85 872.464,301.637L872.396,301.704L872.303,301.728C866.653,303.14 860.9,304.253 855.666,304.944L855.163,305.009L855.273,304.517C857.546,294.294 860.413,285.091 863.562,277.898C864.568,275.595 865.567,274.15 867.434,274.05C869.177,273.922 870.524,275.063 871.306,277.224C871.561,277.939 872.064,278.402 872.584,278.402C873.18,278.402 873.793,277.828 874.311,276.785C875.365,274.658 874.517,270.139 870.749,267.607C868.434,266.054 866.257,265.267 864.275,265.267C861.797,265.267 859.669,266.538 858.129,268.945C852.998,276.955 848.441,289.929 845.295,305.476L845.236,305.757L844.778,305.759C842.604,305.759 840.696,305.626 839.101,305.363C837.53,305.106 836.49,305.342 836.114,306.047C835.615,306.981 836.179,308.785 837.664,311.001C839.08,313.114 841.023,313.378 843.441,313.326L843.866,313.318ZM656.222,310.484L656.136,311.005C654.6,320.374 653.842,329.75 654.104,336.083C654.407,343.31 655.827,347.599 658.438,349.194C659.12,349.612 660.043,349.872 660.856,349.872C661.366,349.872 662.069,349.768 662.51,349.276C662.861,348.883 662.998,348.293 662.912,347.521C661.937,338.622 663.219,323.779 666.258,308.781L666.306,308.542L666.547,308.504C671.639,307.685 677.01,307.017 682.074,306.579L682.904,306.507L682.381,307.153C681.34,308.434 680.83,310.309 680.83,312.883C680.83,318.651 688.361,327.026 700.157,327.026C707.13,327.026 715.55,320.949 715.55,313.401C715.55,303.749 707.475,297.266 699.934,297.266C696.858,297.266 693.667,298.682 691.18,301.151L691.076,301.256L690.924,301.254C689.057,301.229 687.19,301.215 685.336,301.215C679.146,301.215 673.413,301.371 668.293,301.682L667.818,301.711L667.931,301.248C670.519,290.588 673.613,281.769 676.874,275.744C678.177,273.342 679.059,272.24 680.84,272.051C680.974,272.037 681.105,272.03 681.23,272.03C682.952,272.03 684.358,273.267 685.416,275.706C685.619,276.175 686.063,276.677 686.693,276.677C687.31,276.677 687.982,276.22 688.636,275.357C689.474,274.25 689.725,272.49 689.312,270.654C688.73,268.102 686.986,265.91 684.523,264.64C682.236,263.46 680.162,262.863 678.367,262.863C675.756,262.863 673.589,264.095 671.749,266.633C664.377,276.798 660.077,291.69 657.766,302.392L657.714,302.637L657.466,302.667C649.459,303.676 643.037,305.242 638.366,307.32C637.112,307.878 636.443,308.515 636.385,309.215C636.306,310.141 637.257,311.299 639.135,312.565C642.067,314.54 644.403,314.825 646.752,313.526C648.419,312.604 651.52,311.594 655.709,310.607L656.222,310.484ZM816.615,313.871L816.567,314.988C816.291,321.665 818.103,326.3 822.107,329.158C823.091,329.861 824.311,330.297 825.296,330.297C825.886,330.297 826.337,330.137 826.557,329.844C826.771,329.567 826.802,329.158 826.658,328.629C825.084,322.899 825.693,315.407 828.322,308.078C829.665,304.326 830.24,302.098 826.379,299.943C823.434,298.295 821.308,298.247 820.129,299.871C820.006,300.037 819.892,300.211 819.772,300.394L819.531,300.751C812.747,310.671 802.326,322.257 795.298,322.257C794.189,322.257 793.252,321.851 792.511,321.048C791.013,319.423 790.445,316.3 790.816,311.763C791.764,300.201 796.787,283.478 802.009,274.48C803.319,272.226 803.687,270.841 803.204,269.988C802.761,269.199 801.472,268.783 799.37,268.748L799.129,268.746C794.202,268.746 792.37,271.313 791.226,273.824C786.841,283.492 781.56,298.238 781.297,313.588C781.229,317.641 782.607,321.135 785.394,323.972C789.108,327.748 794.069,329.119 796.498,329.119C803.885,329.119 811.85,320.123 815.936,314.762L816.615,313.871ZM261.581,260.42C259.157,260.42 257.989,262.032 257.704,263.541C257.244,265.977 256.39,269.689 255.401,273.986C252.833,285.154 249.314,300.449 248.435,311.378C247.322,325.242 250.406,328.205 253.904,329.342C254.736,329.617 255.443,329.535 255.864,329.107C256.248,328.719 256.438,328.051 256.429,327.12C256.327,315.249 264.272,282.936 268.382,269.661C269.93,264.658 268.585,262.931 265.56,261.489C264.071,260.779 262.733,260.42 261.581,260.42ZM727.684,298.652C726.913,298.652 725.893,298.791 725.403,299.449C725.066,299.902 725.024,300.566 725.283,301.42C726.568,305.662 724.922,313.488 723.939,318.165C723.792,318.877 723.657,319.512 723.55,320.046C722.813,323.846 724.563,324.875 726.988,326.299C728.117,326.964 729.296,327.328 730.315,327.328C731.321,327.328 732.64,326.959 733.203,325.195C735.937,316.537 743.682,301.869 764.787,300.92C765.366,300.897 765.779,300.527 765.887,299.938C766.038,299.122 765.563,298.022 764.157,297.413C762.783,296.815 760.988,296.512 758.828,296.512C752.069,296.512 743.235,299.452 736.838,303.827L736.442,304.099L736.3,303.637C736.097,302.967 732.865,299.713 729.734,298.926C729.027,298.746 728.317,298.652 727.684,298.652ZM281.693,290.141C279.519,290.141 278.481,291.621 277.511,294.006C275.528,298.877 272.964,309.123 271.911,316.379C271.246,320.94 272.504,322.563 275.767,324.68C279.495,327.102 283.289,327.212 285.379,324.897C286.281,323.897 287.218,322.838 288.176,321.756C292.427,316.957 297.247,311.516 301.426,308.506C302.429,307.785 303.566,308.244 304.037,309.506C309.002,322.83 317.137,324.818 321.545,324.818C322.169,324.818 322.799,324.779 323.418,324.703C325.026,324.504 325.959,323.371 325.902,322.433C325.864,321.824 325.413,321.475 324.662,321.475L324.447,321.477C317.834,321.477 316.477,314.896 314.597,305.789L314.402,304.851C313.768,301.775 311.562,299.455 308.022,298.14C307.042,297.777 306.165,297.599 305.338,297.599C303.517,297.599 302.276,298.49 301.075,299.351C297.678,301.783 292.941,306.664 289.134,310.587C285.606,314.222 283.882,315.976 283.219,316.13L282.711,316.247L282.792,315.731C283.362,312.057 285.407,303.617 288.459,296.602C288.866,295.672 288.904,294.786 288.575,293.965C288.093,292.766 286.835,291.715 284.94,290.924C283.688,290.404 282.596,290.141 281.693,290.141ZM507.276,310.83L507.31,311.607C507.685,320.248 513.574,324.578 516.367,325.322C518.008,325.761 519.379,325.543 519.785,324.822C519.992,324.459 519.94,323.978 519.639,323.468C515.74,316.863 518.127,304.486 518.41,303.095C519.27,298.905 517.076,297.558 514.75,296.131L514.643,296.066C513.569,295.406 512.448,295.043 511.485,295.043C510.776,295.043 509.842,295.241 509.435,296.186C506.21,303.684 495.835,314.748 490.79,314.748C489.291,314.748 488.187,314.203 487.505,313.13C485.799,310.444 487.273,305.055 489.22,300.906C490.485,298.211 489.806,296.51 486.795,294.842C485.322,294.026 483.923,293.593 482.749,293.593C481.249,293.593 480.182,294.268 479.581,295.602C478.675,297.607 476.865,302.683 475.824,309C475.354,311.854 476.32,314.867 478.546,317.49C481.178,320.59 485.162,322.673 488.461,322.673C492.779,322.673 498.75,318.975 506.715,311.367L507.276,310.83ZM535.066,293.621C533.111,293.621 531.912,295.004 531.056,298.246C528.696,307.19 529.06,315.074 532.06,319.877C533.609,322.357 535.748,323.884 538.417,324.414C539.933,324.716 541.169,324.478 541.581,323.836C541.829,323.449 541.725,323.022 541.593,322.732C539.337,317.764 538.685,309.012 541.8,301.894C543.376,298.293 542.609,296.348 538.962,294.707C537.338,293.975 536.064,293.621 535.066,293.621ZM698.276,320.57C696.257,320.57 694.507,319.793 693.349,318.384C692.122,316.896 691.661,314.833 692.075,312.721C692.795,309.056 697.129,304.575 701.163,304.575C702.879,304.575 704.381,305.218 705.511,306.431C707.01,308.041 707.578,310.327 707.475,311.768C707.13,316.458 702.83,320.57 698.276,320.57ZM339.478,315.859C338.698,315.859 338.272,315.508 338.054,315.215C337.627,314.642 337.563,313.755 337.873,312.714C338.857,309.424 346.005,298.831 349.352,298.831C350.267,298.831 351.128,299.337 351.715,300.217C352.558,301.48 352.68,303.228 352.034,304.782C349.951,309.799 343.886,315.859 339.478,315.859ZM879.564,310.461L879.523,310.092C879.016,305.375 882.388,302.48 885.71,301.341C886.251,301.156 886.806,301.063 887.364,301.063C888.835,301.063 890.068,301.707 890.582,302.742C891.057,303.698 890.844,304.85 889.982,305.985C887.894,308.737 882.789,309.934 879.929,310.402L879.564,310.461ZM389.08,306.311L389.235,305.588C390.274,300.731 392.796,296.957 396.334,294.963C396.867,294.662 397.483,294.504 398.117,294.504C399.39,294.504 400.494,295.141 400.866,296.09C401.113,296.721 401.243,298.039 399.352,299.785C397.202,301.773 394.059,303.797 389.739,305.978L389.08,306.311ZM832.297,269.631C831.236,269.631 830.389,269.914 830.03,270.391C829.324,271.321 829.717,272.602 830.168,273.514C831.859,276.91 836.797,280.502 839.773,280.502C840.637,280.502 841.289,280.201 841.709,279.607C842.581,278.38 841.606,274.447 838.857,272.274C836.728,270.594 834.337,269.631 832.297,269.631ZM537.984,269.367C537.214,269.367 536.619,269.631 536.216,270.152C535.465,271.125 535.406,272.274 536.042,273.568C537.458,276.447 542.062,279.273 545.341,279.273C546.491,279.273 547.347,278.928 547.882,278.252C548.234,277.809 547.925,276.996 547.708,276.55C546.258,273.546 541.084,269.367 537.984,269.367Z" style="fill-rule:nonzero;"/>
    </g>
    <g id="SIEMENS" transform="matrix(1.20868,0,0,1.20868,-117.158,-78.8295)">
        <path d="M107.322,210.31L107.322,189.676C119.066,193.372 129.458,195.221 138.498,195.221C150.979,195.221 157.221,191.922 157.221,185.328C157.221,182.87 156.313,180.805 154.492,179.132C152.63,177.358 147.862,174.898 140.198,171.747C126.448,166.094 117.483,161.272 113.312,157.285C107.907,152.021 105.204,145.382 105.204,137.36C105.204,127.03 109.142,119.156 117.012,113.746C124.795,108.382 134.93,105.704 147.432,105.704C154.32,105.704 164.29,106.972 177.332,109.511L177.332,129.36C167.629,125.484 158.622,123.55 150.3,123.55C138.582,123.55 132.723,126.768 132.723,133.217C132.723,135.628 133.903,137.594 136.266,139.118C138.231,140.351 143.647,142.957 152.501,146.943C165.25,152.605 173.736,157.526 177.965,161.713C182.983,166.679 185.496,173.104 185.496,180.98C185.496,192.3 180.573,200.936 170.732,206.885C162.76,211.71 152.421,214.113 139.724,214.113C129.003,214.111 118.2,212.849 107.322,210.31Z" style="fill:rgb(0,153,153);"/>
        <path d="M201.979,107.519L231.163,107.519L231.163,212L201.979,212L201.979,107.519Z" style="fill:rgb(0,153,153);"/>
        <path d="M257.928,212L257.928,107.519L332.777,107.519L332.777,126.417L286.055,126.417L286.055,150.009L326.725,150.009L326.725,167.246L286.055,167.246L286.055,192.041L333.981,192.041L333.981,212L257.928,212Z" style="fill:rgb(0,153,153);"/>
        <path d="M353.033,212L353.033,107.519L390.872,107.519L417.16,174.278L444.107,107.519L480.048,107.519L480.048,212L452.377,212L452.377,138.025L421.737,213.061L403.646,213.061L373.595,138.025L373.595,212L353.033,212Z" style="fill:rgb(0,153,153);"/>
        <path d="M506.818,212L506.818,107.519L581.667,107.519L581.667,126.417L534.948,126.417L534.948,150.009L575.617,150.009L575.617,167.246L534.948,167.246L534.948,192.041L582.879,192.041L582.879,212L506.818,212Z" style="fill:rgb(0,153,153);"/>
        <path d="M602.082,212L602.082,107.519L635.906,107.519L671.791,177.461L671.791,107.519L692.348,107.519L692.348,212L659.484,212L622.646,141.117L622.646,212L602.082,212Z" style="fill:rgb(0,153,153);"/>
        <path d="M713.066,210.31L713.066,189.676C724.711,193.372 735.101,195.221 744.248,195.221C756.729,195.221 762.965,191.922 762.965,185.328C762.965,182.87 762.08,180.805 760.319,179.132C758.448,177.358 753.66,174.898 745.95,171.747C732.242,166.141 723.267,161.321 719.057,157.285C713.655,152.068 710.957,145.405 710.957,137.29C710.957,127.004 714.885,119.157 722.764,113.746C730.535,108.382 740.682,105.704 753.187,105.704C760.215,105.704 769.325,106.82 780.497,109.063L783.078,109.511L783.078,129.36C773.373,125.484 764.34,123.55 755.974,123.55C744.299,123.55 738.477,126.768 738.477,133.217C738.477,135.628 739.652,137.594 742.008,139.118C743.882,140.305 749.319,142.911 758.32,146.943C770.973,152.605 779.442,157.526 783.707,161.713C788.733,166.679 791.241,173.104 791.241,180.98C791.241,192.3 786.345,200.936 776.554,206.885C768.534,211.71 758.171,214.113 745.476,214.113C734.743,214.111 723.936,212.849 713.066,210.31Z" style="fill:rgb(0,153,153);"/>
    </g>
</svg>
