<?xml version="1.0" encoding="utf-8"?>
<!-- Generator: Adobe Illustrator 19.2.1, SVG Export Plug-In . SVG Version: 6.00 Build 0)  -->
<svg version="1.1" id="Ebene_1" xmlns="http://www.w3.org/2000/svg" xmlns:xlink="http://www.w3.org/1999/xlink" x="0px" y="0px"
	 viewBox="0 0 260.4 48.4" style="enable-background:new 0 0 260.4 48.4;" xml:space="preserve">
<style type="text/css">
	.st0{opacity:0.21;fill:url(#SVGID_1_);}
	.st1{opacity:0.21;fill:url(#SVGID_2_);}
	.st2{fill:#E6273F;}
	.st3{fill:#C21F3D;}
	.st4{fill:url(#SVGID_3_);}
	.st5{fill:url(#SVGID_4_);}
	.st6{opacity:0.21;fill:url(#SVGID_5_);}
	.st7{fill:#EF8796;}
	.st8{fill:url(#SVGID_6_);}
</style>
<g>
	<linearGradient id="SVGID_1_" gradientUnits="userSpaceOnUse" x1="-0.306" y1="16.934" x2="14.4084" y2="28.8852">
		<stop  offset="0" style="stop-color:#FFFFFF"/>
		<stop  offset="1" style="stop-color:#451F3B"/>
	</linearGradient>
	<polygon class="st0" points="0,15.9 0,18.6 15.1,28.1 15.1,28.1 	"/>
	
		<linearGradient id="SVGID_2_" gradientUnits="userSpaceOnUse" x1="9037.2988" y1="4379.3701" x2="9050.749" y2="4390.2939" gradientTransform="matrix(-1 0 0 -1 9067.3711 4419.2354)">
		<stop  offset="0" style="stop-color:#FFFFFF"/>
		<stop  offset="1" style="stop-color:#451F3B"/>
	</linearGradient>
	<polygon class="st1" points="29.7,40.9 29.7,38.2 17.2,28.1 17.2,28.1 	"/>
	<polygon class="st2" points="32.3,15.9 32.3,0 17.2,12.2 17.2,28.1 	"/>
	<polygon class="st3" points="2.7,22.3 2.7,38.2 15.1,28.1 15.1,12.2 	"/>
	<linearGradient id="SVGID_3_" gradientUnits="userSpaceOnUse" x1="17.241" y1="25.2006" x2="29.6882" y2="25.2006">
		<stop  offset="0" style="stop-color:#A81F3D"/>
		<stop  offset="7.362294e-002" style="stop-color:#B01F3D"/>
		<stop  offset="0.2203" style="stop-color:#BA1F3D"/>
		<stop  offset="0.4267" style="stop-color:#C01F3D"/>
		<stop  offset="1" style="stop-color:#C21F3D"/>
	</linearGradient>
	<polygon class="st4" points="29.7,22.3 29.7,38.2 17.2,28.1 17.2,12.2 	"/>
	<linearGradient id="SVGID_4_" gradientUnits="userSpaceOnUse" x1="3.604739e-002" y1="14.0452" x2="15.1334" y2="14.0452">
		<stop  offset="0" style="stop-color:#E83B54"/>
		<stop  offset="0.3316" style="stop-color:#E83851"/>
		<stop  offset="0.7437" style="stop-color:#E73047"/>
		<stop  offset="1" style="stop-color:#E6273F"/>
	</linearGradient>
	<polygon class="st5" points="0,15.9 0,0 15.1,12.2 15.1,28.1 	"/>
	<linearGradient id="SVGID_5_" gradientUnits="userSpaceOnUse" x1="4.8046" y1="20.7118" x2="14.607" y2="28.6734">
		<stop  offset="0" style="stop-color:#811E3C"/>
		<stop  offset="1" style="stop-color:#451F3B"/>
	</linearGradient>
	<polygon class="st6" points="5.3,20.2 4.1,21.2 15.1,28.1 15.1,28.1 	"/>
	<polygon class="st7" points="29.7,22.4 17.2,12.2 17.3,12.2 29.7,22.3 	"/>
	<polygon class="st3" points="15.1,28.1 0,15.9 0.1,15.8 15.2,28 	"/>
	<g>
		
			<linearGradient id="SVGID_6_" gradientUnits="userSpaceOnUse" x1="41.1643" y1="-960.372" x2="41.1643" y2="-931.2452" gradientTransform="matrix(1 0 0 1 94.1067 965.4349)">
			<stop  offset="0" style="stop-color:#78818F"/>
			<stop  offset="0.4568" style="stop-color:#455062"/>
		</linearGradient>
		<path class="st8" d="M57.9,5.4l-1.3,7.4c-1-0.8-2.2-1.2-3.4-1.2H51c-3.3,0-6.4,2.6-7,5.9l-0.9,5.3l-0.6,3.6
			c-0.3,1.7,0.1,3.4,1.1,4.6c1,1.2,2.5,1.9,4.2,1.9H49c0,0,0,0,0,0h3.8c2,0,3.8-1.5,4.1-3.5l0.4-2.4l0,0l0.5-2.9l0.1-0.6l3.2-17.9
			H57.9z M54.8,22.9L54.8,22.9l-1,5.4c-0.1,0.7-0.8,1.3-1.5,1.3h-4.5c-0.7,0-1.4-0.3-1.8-0.8c-0.4-0.5-0.6-1.2-0.4-2l1.4-8l0.2-0.9
			c0.3-1.8,2.1-3.3,3.8-3.3h2.6c1,0,1.8,0.3,2.4,0.9l0.1,0.1L54.8,22.9z M100.4,11.6L100.4,11.6c-0.3,0-0.5,0-0.8,0
			c-2-0.1-5.3-0.2-7,3.8c-0.1,0.2-0.2,0.5-0.3,0.7l3,1c0.1-0.2,0.1-0.3,0.2-0.5c0.8-1.9,1.9-2,3.9-1.9c0.3,0,0.6,0,0.9,0v0
			c0.8,0,1.4,0.3,1.8,0.8c0.4,0.5,0.6,1.2,0.5,2l-0.5,2.7h-5.7c-3.4,0-6.5,2.6-7.1,6l0,0.3c-0.3,1.6,0.1,3.2,1.1,4.4
			c1,1.2,2.4,1.8,4,1.8h5.3c2,0,3.8-1.5,4.1-3.5l0.4-2.3c0-0.1,0-0.2,0.1-0.2l0.8-4.6l0,0h0l0.7-4c0.3-1.7-0.1-3.4-1.2-4.6
			C103.6,12.3,102.1,11.6,100.4,11.6z M100.8,28.3c-0.1,0.7-0.8,1.2-1.5,1.2h-4.8c-0.7,0-1.2-0.2-1.6-0.7c-0.4-0.4-0.5-1.1-0.4-1.7
			l0-0.3c0.3-1.8,2.1-3.4,4-3.4h5.1L100.8,28.3z M85,15.1h3.9l0.6-3.2h-3.9L86,9.5l-3.2-0.6l-0.5,3h-1.9l-0.6,3.2h1.9l-2.1,12.1
			c-0.3,1.9,0.3,3.1,0.9,3.8c1,1.2,2.7,1.8,4.9,1.8h1.1l0.6-3.2h-1.6c-1.1,0-1.9-0.1-2.2-0.5c-0.1-0.1-0.4-0.5-0.3-1.3L85,15.1z
			 M71.6,11.6L71.6,11.6c-0.3,0-0.5,0-0.8,0c-2-0.1-5.3-0.2-7,3.8c-0.1,0.2-0.2,0.5-0.3,0.7l3,1c0.1-0.2,0.1-0.3,0.2-0.5
			c0.8-1.9,1.9-2,3.9-1.9c0.3,0,0.6,0,0.9,0v0c0.8,0,1.4,0.3,1.8,0.8c0.4,0.5,0.6,1.2,0.5,2l-0.5,2.7h-5.7c-3.4,0-6.5,2.6-7.1,6
			l0,0.3c-0.3,1.6,0.1,3.2,1.1,4.4c1,1.2,2.4,1.8,4,1.8h5.3c2,0,3.8-1.5,4.1-3.5l0.4-2.3c0-0.1,0-0.2,0.1-0.2l0.8-4.6l0,0h0l0.7-4
			c0.3-1.7-0.1-3.4-1.2-4.6C74.8,12.3,73.3,11.6,71.6,11.6z M72,28.3c-0.1,0.7-0.8,1.2-1.5,1.2h-4.8c-0.7,0-1.2-0.2-1.6-0.7
			c-0.4-0.4-0.5-1.1-0.4-1.7l0-0.3c0.3-1.8,2.1-3.4,4-3.4h5.1L72,28.3z M192.5,11.5h-1.5c-4,0-7.7,3.1-8.4,7.1l-0.4,2.1l-0.9,5.2
			c-0.5,2.9,1,5.5,3.8,6.4c0.9,0.3,2.1,0.5,3.4,0.5c1.8,0,3.8-0.3,5.3-0.7l1.6-0.4l-0.8-3.1L193,29c-2.4,0.7-5.6,0.7-6.7,0.3
			c-1-0.3-1.9-1.3-1.6-2.8l0.4-2.1h9.4c1.5,0,2.8-1.1,3-2.5l0.6-3.6c0.3-1.8-0.1-3.5-1.2-4.7C195.8,12.2,194.3,11.5,192.5,11.5z
			 M194.9,17.7l-0.6,3.5h-8.7l0.3-2c0.4-2.4,2.8-4.4,5.2-4.4h1.5c0.8,0,1.5,0.3,1.9,0.8C194.9,16.1,195,16.9,194.9,17.7z
			 M173.9,11.5h-2.1c-1.9,0-3.8,0.8-5.1,2.2c0-0.1-0.1-0.1-0.2-0.2c-1.1-1.3-2.6-2-4.4-2h-1.3c-1.8,0-3.4,0.6-4.9,1.6l0.2-1.3h-2.6
			l-1.1,6.3c-0.1,0.2-0.1,0.4-0.1,0.6l-2.4,13.7h3.3l2.3-13.1c0.4-2.5,2.9-4.6,5.3-4.6h1.3c0.8,0,1.5,0.3,1.9,0.8
			c0.5,0.5,0.6,1.3,0.5,2.1l-2.6,14.7h3.3l2.5-14.2c0,0,0,0,0,0c0.3-1.9,2.2-3.5,4.1-3.5h2.1c0.8,0,1.5,0.3,1.9,0.8
			c0.5,0.5,0.6,1.3,0.5,2.1l-2.6,14.7h3.3l2.5-14.2c0.3-1.8-0.1-3.5-1.2-4.8C177.2,12.2,175.6,11.6,173.9,11.5z M213.1,14.5
			l-0.5-3.2c0,0-1.3,0.1-2,0.2c-0.7,0.1-1.7,0.3-2,0.4c-0.9,0.3-1.9,0.7-2.8,1.2l0.2-1.4h-2.6l-1,5.5c-0.1,0.2-0.1,0.4-0.1,0.6
			l-2.6,14.5h3.3l2.5-14c0.3-1.6,1.5-2.5,4.1-3.4c0.2-0.1,1-0.2,1.9-0.4C212.4,14.6,213.1,14.5,213.1,14.5z M222.5,21.1
			c-0.4-0.1-0.9-0.3-1.4-0.5c-0.6-0.2-1.3-0.5-1.9-0.7c-2.4-0.9-2.4-1.6-2.3-2.4c0.2-1.4,1.6-2.6,3-2.6c0.4,0,0.8,0,1.2,0
			c3-0.1,3.6,0.1,3.8,1.5c0,0.1,0,0.3,0,0.4l3.2-0.1c0-0.3,0-0.6-0.1-0.8c-0.7-4.5-4.7-4.3-7.1-4.3c-0.4,0-0.7,0-1.1,0
			c-3,0-5.7,2.3-6.2,5.3c-0.7,4.1,3.1,5.6,4.3,6c0.6,0.2,1.3,0.5,1.9,0.7c0.5,0.2,1,0.4,1.4,0.6c2.3,0.9,2.3,2.3,2.2,2.9
			c-0.2,1.4-1.6,2.6-3,2.6v0c-0.4,0-0.9,0-1.2,0c-3.3,0.1-4.5-0.1-4.8-1.5c0-0.1,0-0.3,0-0.4l-3.2,0.1c0,0.3,0,0.6,0.1,0.8
			c0.6,3.8,4.1,4.3,6.8,4.3c0.4,0,2,0,2.4,0l0,0v0c3,0,5.7-2.3,6.2-5.3C227.3,24.7,225.7,22.2,222.5,21.1z M129.9,11.5h-2.4
			c-3.5,0-6.6,2.7-7.2,6.1l-1.5,8.4c-0.3,1.8,0.1,3.5,1.2,4.7c1.1,1.3,2.6,2,4.4,2h2.4c3.5,0,6.6-2.7,7.2-6.1l1.5-8.4
			c0.3-1.8-0.1-3.5-1.2-4.7C133.3,12.2,131.7,11.5,129.9,11.5z M132.3,17.7l-1.5,8.4c-0.3,1.9-2.2,3.5-4.1,3.5h-2.4
			c-0.8,0-1.5-0.3-1.9-0.8c-0.4-0.5-0.6-1.3-0.5-2.1l1.5-8.4c0.3-1.9,2.2-3.5,4.1-3.5h2.4c0.8,0,1.5,0.3,1.9,0.8
			C132.3,16.1,132.4,16.9,132.3,17.7z M115,11.9c0.3-1.6,0.9-3.2,4.8-3.4l1.2-0.1c0.5,0,0.8,0,0.8,0l0.6-3.2c0,0-0.3,0-1.4,0
			c-0.5,0-0.9,0.1-1.4,0.1c-4.6,0.3-7.1,2.3-7.8,6.1l-0.1,0.5h-1.9l-0.6,3.2h1.9l-3.4,19c1.8,0.3,3.4-0.9,3.8-2.6l2.9-16.4h3.9
			l0.6-3.2H115z M149.6,11.3c0,0-1.3,0.1-2,0.2c-0.7,0.1-1.7,0.3-2,0.4c-0.9,0.3-1.9,0.7-2.8,1.2l0.2-1.4h-2.6l-1,5.5
			c-0.1,0.2-0.1,0.4-0.1,0.6l-2.6,14.5h3.3l2.5-14c0.3-1.6,1.5-2.5,4.1-3.4c0.2-0.1,1-0.2,1.9-0.4c0.9-0.1,1.6-0.2,1.6-0.2
			L149.6,11.3z"/>
	</g>
</g>
</svg>
