<?xml version="1.0" encoding="UTF-8" standalone="no"?>
<!DOCTYPE svg PUBLIC "-//W3C//DTD SVG 1.1//EN" "http://www.w3.org/Graphics/SVG/1.1/DTD/svg11.dtd">
<svg width="100%" height="100%" viewBox="0 0 3508 2481" version="1.1" xmlns="http://www.w3.org/2000/svg" xmlns:xlink="http://www.w3.org/1999/xlink" xml:space="preserve" xmlns:serif="http://www.serif.com/" style="fill-rule:evenodd;clip-rule:evenodd;stroke-linecap:square;stroke-miterlimit:1.5;">
    <g id="OG-10" serif:id="OG 10">
        <g transform="matrix(1.41806,0,0,1.41806,752.601,-647.169)">
            <g>
                <text x="354.541px" y="727.75px" style="font-family:'Raleway-Regular', 'Raleway', sans-serif;font-size:75px;">R<tspan x="402.391px " y="727.75px ">o</tspan>om</text>
                <text x="369.391px" y="802.75px" style="font-family:'Raleway-Regular', 'Raleway', sans-serif;font-size:75px;">10.0<tspan x="505.591px " y="802.75px ">7</tspan></text>
            </g>
        </g>
        <g transform="matrix(1.41806,0,0,1.41806,-295.206,1105.26)">
            <text x="351px" y="810.277px" style="font-family:'Raleway-Regular', 'Raleway', sans-serif;font-size:188.051px;">OG 10</text>
        </g>
        <g transform="matrix(1.41806,0,0,1.41806,1389.86,-647.169)">
            <g>
                <text x="354.541px" y="727.75px" style="font-family:'Raleway-Regular', 'Raleway', sans-serif;font-size:75px;">R<tspan x="402.391px " y="727.75px ">o</tspan>om</text>
                <text x="365.904px" y="802.75px" style="font-family:'Raleway-Regular', 'Raleway', sans-serif;font-size:75px;">10.06</text>
            </g>
        </g>
        <g transform="matrix(1.41806,0,0,1.41806,1177.8,571.049)">
            <g>
                <text x="354.541px" y="727.75px" style="font-family:'Raleway-Regular', 'Raleway', sans-serif;font-size:75px;">R<tspan x="402.391px " y="727.75px ">o</tspan>om</text>
                <text x="368.979px" y="802.75px" style="font-family:'Raleway-Regular', 'Raleway', sans-serif;font-size:75px;">10.02</text>
            </g>
        </g>
        <g id="Layout" transform="matrix(1.41806,0,0,1.41806,35.0638,-92.7085)">
            <g id="Stairs">
                <path d="M924.5,643L830,643L830,624L924.5,624L924.5,643ZM831.469,625.469L831.469,641.531L923.031,641.531L923.031,625.469L831.469,625.469Z"/>
                <g transform="matrix(1,0,0,1,0,17)">
                    <path d="M924.5,643L830,643L830,624L924.5,624L924.5,643ZM831.469,625.469L831.469,641.531L923.031,641.531L923.031,625.469L831.469,625.469Z"/>
                </g>
                <g transform="matrix(1,0,0,1,0,34)">
                    <path d="M924.5,643L830,643L830,624L924.5,624L924.5,643ZM831.469,625.469L831.469,641.531L923.031,641.531L923.031,625.469L831.469,625.469Z"/>
                </g>
                <g transform="matrix(1,0,0,1,0,51)">
                    <path d="M924.5,643L830,643L830,624L924.5,624L924.5,643ZM831.469,625.469L831.469,641.531L923.031,641.531L923.031,625.469L831.469,625.469Z"/>
                </g>
                <g transform="matrix(1,0,0,1,0,68)">
                    <path d="M924.5,643L830,643L830,624L924.5,624L924.5,643ZM831.469,625.469L831.469,641.531L923.031,641.531L923.031,625.469L831.469,625.469Z"/>
                </g>
                <g transform="matrix(1,0,0,1,0,85)">
                    <path d="M924.5,643L830,643L830,624L924.5,624L924.5,643ZM831.469,625.469L831.469,641.531L923.031,641.531L923.031,625.469L831.469,625.469Z"/>
                </g>
                <g transform="matrix(1,0,0,1,0,102)">
                    <path d="M924.5,643L830,643L830,624L924.5,624L924.5,643ZM831.469,625.469L831.469,641.531L923.031,641.531L923.031,625.469L831.469,625.469Z"/>
                </g>
                <g transform="matrix(1,0,0,1,0,119)">
                    <path d="M924.5,643L830,643L830,624L924.5,624L924.5,643ZM831.469,625.469L831.469,641.531L923.031,641.531L923.031,625.469L831.469,625.469Z"/>
                </g>
                <g transform="matrix(1,0,0,1,0,136)">
                    <path d="M924.5,643L830,643L830,624L924.5,624L924.5,643ZM831.469,625.469L831.469,641.531L923.031,641.531L923.031,625.469L831.469,625.469Z"/>
                </g>
                <g transform="matrix(1,0,0,1,0,153)">
                    <path d="M924.5,643L830,643L830,624L924.5,624L924.5,643ZM831.469,625.469L831.469,641.531L923.031,641.531L923.031,625.469L831.469,625.469Z"/>
                </g>
                <g transform="matrix(1,0,0,1,103.5,0)">
                    <path d="M924.5,643L830,643L830,624L924.5,624L924.5,643ZM831.469,625.469L831.469,641.531L923.031,641.531L923.031,625.469L831.469,625.469Z"/>
                    <g transform="matrix(1,0,0,1,0,17)">
                        <path d="M924.5,643L830,643L830,624L924.5,624L924.5,643ZM831.469,625.469L831.469,641.531L923.031,641.531L923.031,625.469L831.469,625.469Z"/>
                    </g>
                    <g transform="matrix(1,0,0,1,0,34)">
                        <path d="M924.5,643L830,643L830,624L924.5,624L924.5,643ZM831.469,625.469L831.469,641.531L923.031,641.531L923.031,625.469L831.469,625.469Z"/>
                    </g>
                    <g transform="matrix(1,0,0,1,0,51)">
                        <path d="M924.5,643L830,643L830,624L924.5,624L924.5,643ZM831.469,625.469L831.469,641.531L923.031,641.531L923.031,625.469L831.469,625.469Z"/>
                    </g>
                    <g transform="matrix(1,0,0,1,0,68)">
                        <path d="M924.5,643L830,643L830,624L924.5,624L924.5,643ZM831.469,625.469L831.469,641.531L923.031,641.531L923.031,625.469L831.469,625.469Z"/>
                    </g>
                    <g transform="matrix(1,0,0,1,0,85)">
                        <path d="M924.5,643L830,643L830,624L924.5,624L924.5,643ZM831.469,625.469L831.469,641.531L923.031,641.531L923.031,625.469L831.469,625.469Z"/>
                    </g>
                    <g transform="matrix(1,0,0,1,0,102)">
                        <path d="M924.5,643L830,643L830,624L924.5,624L924.5,643ZM831.469,625.469L831.469,641.531L923.031,641.531L923.031,625.469L831.469,625.469Z"/>
                    </g>
                    <g transform="matrix(1,0,0,1,0,119)">
                        <path d="M924.5,643L830,643L830,624L924.5,624L924.5,643ZM831.469,625.469L831.469,641.531L923.031,641.531L923.031,625.469L831.469,625.469Z"/>
                    </g>
                    <g transform="matrix(1,0,0,1,0,136)">
                        <path d="M924.5,643L830,643L830,624L924.5,624L924.5,643ZM831.469,625.469L831.469,641.531L923.031,641.531L923.031,625.469L831.469,625.469Z"/>
                    </g>
                    <g transform="matrix(1,0,0,1,0,153)">
                        <path d="M924.5,643L830,643L830,624L924.5,624L924.5,643ZM831.469,625.469L831.469,641.531L923.031,641.531L923.031,625.469L831.469,625.469Z"/>
                    </g>
                    <g transform="matrix(1,0,0,1,0,170)">
                        <path d="M924.5,643L830,643L830,624L924.5,624L924.5,643ZM831.469,625.469L831.469,641.531L923.031,641.531L923.031,625.469L831.469,625.469Z"/>
                    </g>
                </g>
                <g transform="matrix(1,0,0,0.994709,10.25,57.0212)">
                    <g transform="matrix(1.28696,0,0,1.28696,-273.183,-163.852)">
                        <path d="M931.02,610.872L966.155,571L1001.73,610.872" style="fill:none;stroke:black;stroke-width:1.14px;"/>
                    </g>
                    <g transform="matrix(1,0,0,0.762097,2.34115,122.125)">
                        <path d="M968.159,589L968.159,837" style="fill:none;stroke:black;stroke-width:1.66px;"/>
                    </g>
                </g>
                <g transform="matrix(1,0,0,-0.994709,-93.25,1363.48)">
                    <g transform="matrix(1.28696,0,0,1.28696,-273.183,-163.852)">
                        <path d="M931.02,610.872L966.155,571L1001.73,610.872" style="fill:none;stroke:black;stroke-width:1.14px;"/>
                    </g>
                    <g transform="matrix(1,0,0,0.762097,2.34115,122.125)">
                        <path d="M968.159,589L968.159,813.255" style="fill:none;stroke:black;stroke-width:1.66px;"/>
                    </g>
                </g>
            </g>
            <g id="Stairs1" serif:id="Stairs" transform="matrix(1,0,0,-1,1265.09,1539.4)">
                <g>
                    <path d="M924.5,624L830,624L830,643L924.5,643L924.5,624ZM831.469,641.531L831.469,625.469L923.031,625.469L923.031,641.531L831.469,641.531Z"/>
                    <g transform="matrix(1,0,0,1,0,17)">
                        <path d="M924.5,624L830,624L830,643L924.5,643L924.5,624ZM831.469,641.531L831.469,625.469L923.031,625.469L923.031,641.531L831.469,641.531Z"/>
                    </g>
                    <g transform="matrix(1,0,0,1,0,34)">
                        <path d="M924.5,624L830,624L830,643L924.5,643L924.5,624ZM831.469,641.531L831.469,625.469L923.031,625.469L923.031,641.531L831.469,641.531Z"/>
                    </g>
                    <g transform="matrix(1,0,0,1,0,51)">
                        <path d="M924.5,624L830,624L830,643L924.5,643L924.5,624ZM831.469,641.531L831.469,625.469L923.031,625.469L923.031,641.531L831.469,641.531Z"/>
                    </g>
                    <g transform="matrix(1,0,0,1,0,68)">
                        <path d="M924.5,624L830,624L830,643L924.5,643L924.5,624ZM831.469,641.531L831.469,625.469L923.031,625.469L923.031,641.531L831.469,641.531Z"/>
                    </g>
                    <g transform="matrix(1,0,0,1,0,85)">
                        <path d="M924.5,624L830,624L830,643L924.5,643L924.5,624ZM831.469,641.531L831.469,625.469L923.031,625.469L923.031,641.531L831.469,641.531Z"/>
                    </g>
                    <g transform="matrix(1,0,0,1,0,102)">
                        <path d="M924.5,624L830,624L830,643L924.5,643L924.5,624ZM831.469,641.531L831.469,625.469L923.031,625.469L923.031,641.531L831.469,641.531Z"/>
                    </g>
                    <g transform="matrix(1,0,0,1,0,119)">
                        <path d="M924.5,624L830,624L830,643L924.5,643L924.5,624ZM831.469,641.531L831.469,625.469L923.031,625.469L923.031,641.531L831.469,641.531Z"/>
                    </g>
                    <g transform="matrix(1,0,0,1,0,136)">
                        <path d="M924.5,624L830,624L830,643L924.5,643L924.5,624ZM831.469,641.531L831.469,625.469L923.031,625.469L923.031,641.531L831.469,641.531Z"/>
                    </g>
                    <g transform="matrix(1,0,0,1,0,153)">
                        <path d="M924.5,624L830,624L830,643L924.5,643L924.5,624ZM831.469,641.531L831.469,625.469L923.031,625.469L923.031,641.531L831.469,641.531Z"/>
                    </g>
                </g>
                <g transform="matrix(1,0,0,1,103.5,0)">
                    <path d="M924.5,624L830,624L830,643L924.5,643L924.5,624ZM831.469,641.531L831.469,625.469L923.031,625.469L923.031,641.531L831.469,641.531Z"/>
                    <g transform="matrix(1,0,0,1,0,17)">
                        <path d="M924.5,624L830,624L830,643L924.5,643L924.5,624ZM831.469,641.531L831.469,625.469L923.031,625.469L923.031,641.531L831.469,641.531Z"/>
                    </g>
                    <g transform="matrix(1,0,0,1,0,34)">
                        <path d="M924.5,624L830,624L830,643L924.5,643L924.5,624ZM831.469,641.531L831.469,625.469L923.031,625.469L923.031,641.531L831.469,641.531Z"/>
                    </g>
                    <g transform="matrix(1,0,0,1,0,51)">
                        <path d="M924.5,624L830,624L830,643L924.5,643L924.5,624ZM831.469,641.531L831.469,625.469L923.031,625.469L923.031,641.531L831.469,641.531Z"/>
                    </g>
                    <g transform="matrix(1,0,0,1,0,68)">
                        <path d="M924.5,624L830,624L830,643L924.5,643L924.5,624ZM831.469,641.531L831.469,625.469L923.031,625.469L923.031,641.531L831.469,641.531Z"/>
                    </g>
                    <g transform="matrix(1,0,0,1,0,85)">
                        <path d="M924.5,624L830,624L830,643L924.5,643L924.5,624ZM831.469,641.531L831.469,625.469L923.031,625.469L923.031,641.531L831.469,641.531Z"/>
                    </g>
                    <g transform="matrix(1,0,0,1,0,102)">
                        <path d="M924.5,624L830,624L830,643L924.5,643L924.5,624ZM831.469,641.531L831.469,625.469L923.031,625.469L923.031,641.531L831.469,641.531Z"/>
                    </g>
                    <g transform="matrix(1,0,0,1,0,119)">
                        <path d="M924.5,624L830,624L830,643L924.5,643L924.5,624ZM831.469,641.531L831.469,625.469L923.031,625.469L923.031,641.531L831.469,641.531Z"/>
                    </g>
                    <g transform="matrix(1,0,0,1,0,136)">
                        <path d="M924.5,624L830,624L830,643L924.5,643L924.5,624ZM831.469,641.531L831.469,625.469L923.031,625.469L923.031,641.531L831.469,641.531Z"/>
                    </g>
                    <g transform="matrix(1,0,0,1,0,153)">
                        <path d="M924.5,624L830,624L830,643L924.5,643L924.5,624ZM831.469,641.531L831.469,625.469L923.031,625.469L923.031,641.531L831.469,641.531Z"/>
                    </g>
                    <g transform="matrix(1,0,0,1,0,170)">
                        <path d="M924.5,624L830,624L830,643L924.5,643L924.5,624ZM831.469,641.531L831.469,625.469L923.031,625.469L923.031,641.531L831.469,641.531Z"/>
                    </g>
                </g>
                <g transform="matrix(1,0,0,0.994709,10.25,57.0212)">
                    <g transform="matrix(1.28696,0,0,1.28696,-273.183,-163.852)">
                        <path d="M931.02,610.872L966.155,571L1001.73,610.872" style="fill:none;stroke:black;stroke-width:1.14px;"/>
                    </g>
                    <g transform="matrix(1,0,0,0.762097,2.34115,122.125)">
                        <path d="M968.159,589L968.159,837" style="fill:none;stroke:black;stroke-width:1.66px;"/>
                    </g>
                </g>
                <g transform="matrix(1,0,0,-0.994709,-93.25,1363.48)">
                    <g transform="matrix(1.28696,0,0,1.28696,-273.183,-163.852)">
                        <path d="M931.02,610.872L966.155,571L1001.73,610.872" style="fill:none;stroke:black;stroke-width:1.14px;"/>
                    </g>
                    <g transform="matrix(1,0,0,0.762097,2.34115,122.125)">
                        <path d="M968.159,589L968.159,813.255" style="fill:none;stroke:black;stroke-width:1.66px;"/>
                    </g>
                </g>
            </g>
            <g transform="matrix(0.70519,0,0,0.70519,-24.7267,65.3772)">
                <g>
                    <path d="M1719.16,139.465L1719.16,139.667C1961.14,145.238 2202.54,185.198 2430.18,268.27C2593.97,328.04 2750.29,409.579 2883.23,523.434C2914.58,550.282 2944.51,578.927 2972.35,609.454L2977.93,615.621C3026.89,670.29 3069.14,730.914 3101.02,797.973L3255.06,732.966C3256.34,736.279 3257.62,739.591 3258.9,742.903C3298.04,844.465 3322.26,952.628 3322.12,1061C3322,1159.93 3300.98,1258.96 3261.53,1349.92C3223.01,1438.75 3167.58,1520.07 3103.98,1592.22L3280.65,1982.35L2449.55,2355.91L2242.62,1893.55C2059.01,1941.36 1869.22,1964.27 1679.57,1965.69C1465.19,1967.29 1250.32,1941.96 1043.5,1884.94C855.06,1833 672.128,1754.82 514.642,1641.12C401.437,1559.4 300.465,1457.72 235.143,1335.41C191.582,1253.85 165.139,1163.18 162.125,1070.91C158.857,970.878 183.598,870.341 228.844,781.411C280.062,680.742 355.351,594.366 440.102,522.065C591.832,392.623 774.879,303.884 964.931,243.168L964.916,243.121L973.787,240.36C975.236,239.904 976.685,239.45 978.134,238.998C1164.99,180.667 1360.02,149.492 1555.38,141.214C1591.2,139.696 1627.22,138.973 1662.88,138.987C1678.47,139.006 1694.06,139.164 1709.65,139.465L1719.16,139.465ZM3177.97,1801.05L2383.12,2161.59L2458.99,2331.11L3255.82,1972.96L3177.97,1801.05ZM2154.51,1398.54L1495.63,1398.54L1495.63,1379.79L2127.25,1379.79L2127.25,1379.79L2292.28,1379.79C2294.92,1387.72 2297.57,1395.66 2300.22,1403.6L2300.17,1403.61L2457.5,1824.66C2393.06,1849.11 2327.53,1870.69 2260.99,1888.67L2375.46,2144.47L3170.24,1783.97L3090.31,1607.47L3085.94,1612.28L3062.06,1588.67C3064.36,1586.14 3073.95,1575.07 3073.95,1575.07L3084.7,1585.41C3084.7,1585.41 3173.56,1475.55 3207.74,1415.12L3190.09,1404.98L3199.2,1388.59L3216.78,1398.7C3239.68,1356.01 3258.77,1311.35 3272.99,1264.7C3306.34,1155.32 3311.23,1037.81 3291.17,924.992C3281.03,867.955 3264.81,811.759 3244.51,757.803L2995.41,868.342L2995.41,1273.75L2995.41,1273.75L2995.41,1286.91L3121.26,1349.03L3112.96,1365.85L3069.95,1344.61L2991.16,1467.07L2991.16,1502.94L3008.52,1520.13L2995.33,1533.46L2982.24,1520.49L2973.24,1520.49L2609.31,1669.43L2457.69,1290.36L2456.08,1194.02L2474.83,1193.7C2475.34,1223.66 2475.86,1256.63 2476.38,1286.6L2504.63,1357.24L2757.33,1255L2976.66,1255L2976.66,1126.27L2749.78,1126.27L2749.78,1099.33L2476.41,1099.33L2476.41,1107L2457.66,1107L2457.66,1006.84L2476.41,1006.84L2476.41,1080.58L2768.53,1080.58L2768.53,1107.52L2976.66,1107.52L2976.66,927.741L2748.36,927.741L2748.36,908.991L2976.66,908.991L2976.66,856.364L3083.73,805.272C3054.24,743.539 3014.75,686.354 2969.64,634.807L2703.83,831.835L2652.62,772.088L2590.91,815.138L2590.67,814.792L2498.08,914.979L2476.61,914.979L2476.61,920.979L2457.44,920.979L2457.66,896.229L2457.66,896.229L2457.66,825.326L2476.41,825.326L2476.41,896.229L2489.87,896.229L2568.06,811.637L2538.76,777.495L2553.27,765.622L2581.7,798.704L2655.81,746.999L2706.7,806.369L2957.09,620.77C2935.06,596.64 2911.84,573.821 2887.9,552.43C2816.49,488.607 2736.83,434.629 2652.63,388.69L2486.93,690.217L2496.44,701.735L2482.38,714.139L2464.15,692.737L2636.12,379.812C2618.81,370.647 2601.33,361.812 2583.7,353.292C2540.06,332.205 2495.55,313.038 2450.34,295.686L2296.4,732.085L1888.8,729.92L1888.9,711.17L2283.15,713.264L2432.79,289.057C2287.33,234.949 2134.85,199.339 1980.91,178.771C1894.19,167.184 1806.77,160.329 1719.16,158.223L1719.16,709.045L1736.18,709.045L1736.18,709.292L1803.08,709.89L1802.9,728.64L1709.75,727.795L1690.74,727.795L1690.74,709.045L1700.41,709.045L1700.41,157.845C1582.15,155.918 1463.63,162.644 1346.15,178.065C1225.02,193.965 1104.99,219.217 988.364,255.366L1105.72,632.47L1522.6,632.47L1522.6,679.266L1594.38,679.266L1594.46,709.045L1604.47,709.045L1604.47,727.795L1594.52,727.795L1595.78,1185.51L1604.55,1184.47C1605.28,1190.68 1606.02,1196.88 1606.76,1203.09C1573.68,1207.03 1540.75,1211.59 1507.52,1214.59L1494.67,1215.55L1493.01,1196.88L1505.85,1195.91C1529.71,1193.76 1553.35,1190.73 1577.03,1187.8L1575.68,698.016L1503.85,698.016L1503.85,651.22L1111.56,651.22L1147.69,767.309L1147.69,1206.95C1226.14,1208.32 1304.38,1207.58 1382.49,1203.2C1389.37,1202.81 1399.26,1202.4 1406.14,1201.99C1406.51,1208.23 1406.88,1214.47 1407.25,1220.71C1321.67,1225.76 1232.89,1227.38 1147.69,1225.73L1147.69,1243.73L1128.94,1243.73L1128.94,1225.33L1128.74,1225.33L1128.94,1216.06L1128.94,770.159L970.482,261.004C922.99,276.227 876.087,293.281 829.931,312.273C664.259,380.439 506.804,473.258 382.198,601.985C315.181,671.218 258.582,751.18 222.609,840.243C202.745,889.423 189.344,941.231 183.696,993.912C171.249,1110.02 198.508,1229.13 254.489,1331.78C305.308,1424.97 377.183,1505.19 457.442,1572.8C572.229,1669.49 705.447,1742.64 844.76,1798.5C885.898,1814.99 927.587,1829.98 969.727,1843.52L1112.96,1379.79L1130.36,1379.79L1130.36,1329.99L1149.11,1329.99L1149.11,1379.79L1184.72,1379.79L1184.72,1398.54L1126.79,1398.54L987.605,1849.18C1084.34,1879.26 1183.36,1901.84 1283.51,1917.71L1283.51,1398.54L1270.58,1398.54L1270.58,1379.79L1292.01,1379.79L1292.01,1379.79L1408.77,1379.79L1408.77,1398.54L1302.26,1398.54L1302.26,1920.6C1361.64,1929.51 1421.39,1936.08 1481.26,1940.47C1703.08,1956.74 1927.77,1943.6 2145.54,1897.23C2243.32,1876.41 2339.62,1848.78 2433.47,1813.69L2280.65,1404.93L2280.87,1404.85L2278.76,1398.54L2154.51,1398.54L2154.51,1398.54ZM2976.66,1273.75L2760.98,1273.75L2511.6,1374.65L2619.7,1644.92L2972.41,1500.57L2972.41,1461.56L3053.03,1336.25L2976.66,1298.56L2976.66,1273.75Z" style="fill-rule:nonzero;"/>
                </g>
            </g>
        </g>
        <g id="Doors" transform="matrix(1.41806,0,0,1.41806,35.0638,-92.7085)">
            <g transform="matrix(-1.82353,2.23318e-16,-2.23318e-16,-1.82353,3936.97,2915.55)">
                <path d="M1218.5,1101C1199.72,1101 1184.5,1116.22 1184.5,1135L1218.5,1135" style="fill:none;stroke:black;stroke-width:0.81px;"/>
            </g>
            <g transform="matrix(1.11659e-16,1.82353,-1.82353,1.11659e-16,3037.86,-1182.97)">
                <path d="M1218.5,1101C1199.72,1101 1184.5,1116.22 1184.5,1135L1218.5,1135" style="fill:none;stroke:black;stroke-width:0.81px;"/>
            </g>
            <g transform="matrix(1.11659e-16,-1.82353,-1.82353,-1.11659e-16,3315.86,2797.56)">
                <path d="M1218.5,1101C1199.72,1101 1184.5,1116.22 1184.5,1135L1218.5,1135" style="fill:none;stroke:black;stroke-width:0.81px;"/>
            </g>
            <g transform="matrix(1.11659e-16,-1.82353,-1.82353,-1.11659e-16,3175.86,2797.56)">
                <path d="M1218.5,1101C1199.72,1101 1184.5,1116.22 1184.5,1135L1218.5,1135" style="fill:none;stroke:black;stroke-width:0.81px;"/>
            </g>
            <g transform="matrix(-1.82353,2.22045e-16,-2.22045e-16,-1.82353,3000.97,3011.71)">
                <path d="M1218.5,1101C1199.72,1101 1184.5,1116.22 1184.5,1135L1218.5,1135" style="fill:none;stroke:black;stroke-width:0.81px;"/>
            </g>
            <g transform="matrix(-3.33704e-16,-1.82353,1.82353,-3.33704e-16,-1197.71,3268.77)">
                <path d="M1218.5,1101C1199.72,1101 1184.5,1116.22 1184.5,1135L1218.5,1135" style="fill:none;stroke:black;stroke-width:0.81px;"/>
            </g>
            <g transform="matrix(0.162557,1.81627,1.81627,-0.162557,-1231.38,-1118.03)">
                <path d="M1218.5,1101C1199.72,1101 1184.5,1116.22 1184.5,1135L1218.5,1135" style="fill:none;stroke:black;stroke-width:0.81px;"/>
            </g>
            <g transform="matrix(-1.21122,1.36316,1.36316,1.21122,2067.59,-1853.78)">
                <path d="M1218.5,1101C1199.72,1101 1184.5,1116.22 1184.5,1135L1218.5,1135" style="fill:none;stroke:black;stroke-width:0.81px;"/>
            </g>
            <g transform="matrix(-0.864734,1.60546,1.60546,0.864734,1462.08,-1890.92)">
                <path d="M1218.5,1101C1199.72,1101 1184.5,1116.22 1184.5,1135L1218.5,1135" style="fill:none;stroke:black;stroke-width:0.81px;"/>
            </g>
            <g transform="matrix(-1.82353,2.23318e-16,-2.23318e-16,-1.82353,3936.97,2783.66)">
                <path d="M1218.5,1101C1199.72,1101 1184.5,1116.22 1184.5,1135L1218.5,1135" style="fill:none;stroke:black;stroke-width:0.81px;"/>
            </g>
            <g transform="matrix(-1.37108,1.20225,-1.20225,-1.37108,4767.47,653.201)">
                <path d="M1218.5,1101C1199.72,1101 1184.5,1116.22 1184.5,1135L1218.5,1135" style="fill:none;stroke:black;stroke-width:0.81px;"/>
            </g>
        </g>
    </g>
    <g transform="matrix(1.29314,-0.581955,0.581955,1.29314,1528.71,1498.15)">
        <text x="555.634px" y="760.202px" style="font-family:'Raleway-Regular', 'Raleway', sans-serif;font-size:50px;">Ele<tspan x="628.334px 654.334px 681.384px 697.484px " y="760.202px 760.202px 760.202px 760.202px ">vato</tspan>rs</text>
    </g>
    <g transform="matrix(1.41806,0,0,1.41806,2071.95,18.4582)">
        <text x="351px" y="709.5px" style="font-family:'Raleway-Regular', 'Raleway', sans-serif;font-size:50px;">R<tspan x="382.9px " y="709.5px ">e</tspan>str<tspan x="469.6px " y="709.5px ">o</tspan>om</text>
    </g>
    <g transform="matrix(1.41806,0,0,1.41806,2071.95,204.495)">
        <text x="351px" y="709.5px" style="font-family:'Raleway-Regular', 'Raleway', sans-serif;font-size:50px;">R<tspan x="382.9px " y="709.5px ">e</tspan>str<tspan x="469.6px " y="709.5px ">o</tspan>om</text>
    </g>
</svg>
