<?xml version="1.0" encoding="UTF-8" standalone="no"?>
<!DOCTYPE svg PUBLIC "-//W3C//DTD SVG 1.1//EN" "http://www.w3.org/Graphics/SVG/1.1/DTD/svg11.dtd">
<svg width="100%" height="100%" viewBox="0 0 579 581" version="1.1" xmlns="http://www.w3.org/2000/svg" xmlns:xlink="http://www.w3.org/1999/xlink" xml:space="preserve" xmlns:serif="http://www.serif.com/" style="fill-rule:evenodd;clip-rule:evenodd;stroke-linecap:round;stroke-linejoin:round;stroke-miterlimit:1.5;">
    <g transform="matrix(1,0,0,1,0,5)">
        <g transform="matrix(1.03204,0,0,1.03204,-18.627,-14.3707)">
            <path d="M300.5,511C421.174,511 519,413.174 519,292.5L300.5,292.5L300.5,511Z" style="fill:rgb(214,37,51);"/>
        </g>
        <g transform="matrix(-1.03204,0,0,-1.03204,601.627,589.371)">
            <path d="M300.5,511C421.174,511 519,413.174 519,292.5L300.5,292.5L300.5,511Z" style="fill:rgb(214,37,51);"/>
        </g>
        <g transform="matrix(-1.03204,0,0,1.03204,601.627,-14.3707)">
            <path d="M300.5,511C421.174,511 519,413.174 519,292.5L300.5,292.5L300.5,511Z" style="fill:white;"/>
        </g>
        <g transform="matrix(1.03204,0,0,-1.03204,-18.627,589.371)">
            <path d="M300.5,511C421.174,511 519,413.174 519,292.5L300.5,292.5L300.5,511Z" style="fill:white;"/>
        </g>
    </g>
    <g transform="matrix(1.18307,0,0,1.18307,-64.0114,-53.5469)">
        <circle cx="300.5" cy="292.5" r="218.5" style="fill:none;stroke:rgb(214,37,51);stroke-width:34.66px;"/>
    </g>
    <g transform="matrix(1,0,0,1,-6.76583,-5.46013)">
        <g>
            <g transform="matrix(-0.505519,-0.862815,0.862815,-0.505519,-234.906,726.112)">
                <path d="M106.935,411.348C105.135,409.878 102.795,408.918 99.945,408.918C95.535,408.918 92.295,411.138 92.295,415.218C92.295,418.608 94.545,419.778 98.865,420.828C102.825,421.788 105.015,422.508 105.015,424.908C105.015,427.038 103.245,428.148 100.215,428.148C96.975,428.148 94.065,426.648 92.775,425.298L91.485,427.578C93.885,429.528 96.885,430.578 100.155,430.578C104.535,430.578 107.895,428.748 107.895,424.638C107.895,420.798 105.135,419.538 100.695,418.548C96.855,417.678 95.085,417.078 95.085,414.798C95.085,412.638 96.585,411.318 99.885,411.318C102.435,411.318 104.685,412.428 105.675,413.538L106.935,411.348Z" style="fill:white;fill-rule:nonzero;"/>
            </g>
            <g transform="matrix(-0.39067,-0.920531,0.920531,-0.39067,-265.792,629.137)">
                <path d="M84.298,402.837C89.008,402.837 92.218,399.087 92.218,394.737C92.218,390.357 88.978,386.607 84.298,386.607C79.648,386.607 76.408,390.357 76.408,394.737C76.408,399.087 79.588,402.837 84.298,402.837ZM79.108,394.767C79.108,391.497 81.448,388.887 84.298,388.887C87.178,388.887 89.518,391.467 89.518,394.707C89.518,397.977 87.178,400.557 84.298,400.557C81.418,400.557 79.108,398.037 79.108,394.767Z" style="fill:white;fill-rule:nonzero;"/>
            </g>
            <g transform="matrix(-0.28221,-0.959353,0.959353,-0.28221,-276.222,540.267)">
                <path d="M69.614,373.468L69.614,359.878L73.784,359.878L73.784,357.808L69.614,357.808L69.614,357.388C69.614,354.898 70.574,353.518 72.314,353.518C73.094,353.518 73.994,353.788 74.564,354.178L75.224,352.228C74.264,351.628 73.004,351.268 71.774,351.268C68.834,351.268 66.974,353.638 66.974,357.478L66.974,357.808L64.844,357.808L64.844,359.878L66.974,359.878L66.974,373.468L69.614,373.468Z" style="fill:white;fill-rule:nonzero;"/>
            </g>
            <g transform="matrix(-0.190116,-0.981762,0.981762,-0.190116,-275.255,473.935)">
                <path d="M67.454,347.621C67.154,347.801 66.194,348.281 65.144,348.281C64.214,348.281 63.434,347.771 63.374,346.631L63.374,336.911L66.884,336.911L66.884,334.841L63.374,334.841L63.374,329.621L60.734,329.621L60.734,334.841L58.604,334.841L58.604,336.911L60.734,336.911L60.734,347.441C60.734,349.691 62.354,350.711 64.274,350.711C65.954,350.711 67.424,350.021 68.084,349.721L67.454,347.621Z" style="fill:white;fill-rule:nonzero;"/>
            </g>
            <g transform="matrix(-0.0661058,-0.997813,0.997813,-0.0661058,-268.858,401.937)">
                <path d="M70.046,324.176L67.406,317.666L70.076,311.156L67.886,311.156L65.966,316.166L64.046,311.156L61.856,311.156L64.556,317.666L61.916,324.176L56.516,311.126L53.996,311.126L60.656,326.786L62.846,326.786L65.966,319.136L69.116,326.786L71.306,326.786L77.966,311.126L75.416,311.126L70.046,324.176Z" style="fill:white;fill-rule:nonzero;"/>
            </g>
            <g transform="matrix(0.0680797,-0.99768,0.99768,0.0680797,-239.603,321.574)">
                <path d="M58.481,289.342C60.911,289.342 63.161,288.322 64.571,286.462L64.631,287.572C64.751,288.442 65.381,289.162 66.431,289.162C66.821,289.162 67.151,289.132 67.691,289.042L67.691,286.762C67.091,286.732 66.851,286.462 66.851,285.802L66.851,279.412C66.851,275.452 64.391,273.112 60.311,273.112C58.241,273.112 56.231,273.802 54.221,275.152L55.091,276.862C56.801,275.662 58.451,275.032 60.071,275.032C62.681,275.032 64.211,276.592 64.211,279.142L64.211,280.402C63.011,279.922 61.361,279.622 59.831,279.622C55.961,279.622 53.231,281.602 53.231,284.452C53.231,287.212 55.511,289.342 58.481,289.342ZM59.171,287.362C57.221,287.362 55.751,286.012 55.751,284.242C55.751,282.442 57.581,281.212 60.221,281.212C61.571,281.212 62.981,281.482 64.211,281.962L64.211,284.272C64.211,284.632 64.001,285.082 63.641,285.442C62.801,286.612 61.031,287.362 59.171,287.362Z" style="fill:white;fill-rule:nonzero;"/>
            </g>
            <g transform="matrix(0.181444,-0.983401,0.983401,0.181444,-209.563,266.445)">
                <path d="M65.68,243.355C65.47,243.325 65.2,243.325 64.81,243.325C62.83,243.475 60.94,244.915 59.86,247.075L59.86,243.445L57.4,243.445L57.4,259.105L60.04,259.105L60.04,249.445C60.88,247.165 63.04,245.815 65.68,245.755L65.68,243.355Z" style="fill:white;fill-rule:nonzero;"/>
            </g>
            <g transform="matrix(0.287603,-0.95775,0.95775,0.287603,-182.765,225.362)">
                <path d="M69.166,235.836C72.316,235.836 74.986,234.186 76.006,231.876L73.726,231.246C73.066,232.806 71.176,233.856 69.256,233.856C66.526,233.856 64.216,231.696 63.976,228.606L76.966,228.606C76.996,228.426 77.026,228.006 77.026,227.586C77.026,223.386 73.936,219.606 69.196,219.606C64.486,219.606 61.186,223.296 61.186,227.706C61.186,232.116 64.456,235.836 69.166,235.836ZM63.916,226.656C64.126,223.686 66.406,221.586 69.196,221.586C71.986,221.586 74.266,223.656 74.536,226.656L63.916,226.656Z" style="fill:white;fill-rule:nonzero;"/>
            </g>
            <g transform="matrix(0.488476,-0.872578,0.872578,0.488476,-122.699,164.013)">
                <path d="M79.71,175.859C79.71,181.259 83.85,186.839 89.7,186.839C93,186.839 96.81,185.069 98.16,181.889L95.91,180.659C94.68,183.299 92.04,184.409 89.82,184.409C85.59,184.409 82.44,180.419 82.44,175.979C82.44,171.959 84.99,167.669 89.73,167.669C91.89,167.669 94.38,168.569 95.64,171.269L97.77,169.889C96.45,167.159 93.63,165.239 89.85,165.239C83.43,165.239 79.71,170.699 79.71,175.859Z" style="fill:white;fill-rule:nonzero;"/>
            </g>
            <g transform="matrix(0.589979,-0.807419,0.807419,0.589979,-87.8222,142.14)">
                <path d="M106.451,141.79C106.241,141.76 105.971,141.76 105.581,141.76C103.601,141.91 101.711,143.35 100.631,145.51L100.631,141.88L98.171,141.88L98.171,157.54L100.811,157.54L100.811,147.88C101.651,145.6 103.811,144.25 106.451,144.19L106.451,141.79Z" style="fill:white;fill-rule:nonzero;"/>
            </g>
            <g transform="matrix(0.671796,-0.740736,0.740736,0.671796,-65.9706,127.456)">
                <path d="M116.995,138.474C119.425,138.474 121.675,137.454 123.085,135.594L123.145,136.704C123.265,137.574 123.895,138.294 124.945,138.294C125.335,138.294 125.665,138.264 126.205,138.174L126.205,135.894C125.605,135.864 125.365,135.594 125.365,134.934L125.365,128.544C125.365,124.584 122.905,122.244 118.825,122.244C116.755,122.244 114.745,122.934 112.735,124.284L113.605,125.994C115.315,124.794 116.965,124.164 118.585,124.164C121.195,124.164 122.725,125.724 122.725,128.274L122.725,129.534C121.525,129.054 119.875,128.754 118.345,128.754C114.475,128.754 111.745,130.734 111.745,133.584C111.745,136.344 114.025,138.474 116.995,138.474ZM117.685,136.494C115.735,136.494 114.265,135.144 114.265,133.374C114.265,131.574 116.095,130.344 118.735,130.344C120.085,130.344 121.495,130.614 122.725,131.094L122.725,133.404C122.725,133.764 122.515,134.214 122.155,134.574C121.315,135.744 119.545,136.494 117.685,136.494Z" style="fill:white;fill-rule:nonzero;"/>
            </g>
            <g transform="matrix(0.750416,-0.660966,0.660966,0.750416,-44.2031,116.096)">
                <path d="M137.236,116.579L137.236,102.989L141.406,102.989L141.406,100.919L137.236,100.919L137.236,100.499C137.236,98.009 138.196,96.629 139.936,96.629C140.716,96.629 141.616,96.899 142.186,97.289L142.846,95.339C141.886,94.739 140.626,94.379 139.396,94.379C136.456,94.379 134.596,96.749 134.596,100.589L134.596,100.919L132.466,100.919L132.466,102.989L134.596,102.989L134.596,116.579L137.236,116.579Z" style="fill:white;fill-rule:nonzero;"/>
            </g>
            <g transform="matrix(0.808961,-0.587862,0.587862,0.808961,-30.9075,107.449)">
                <path d="M159.467,98.399C159.167,98.579 158.207,99.059 157.157,99.059C156.227,99.059 155.447,98.549 155.387,97.409L155.387,87.689L158.897,87.689L158.897,85.619L155.387,85.619L155.387,80.399L152.747,80.399L152.747,85.619L150.617,85.619L150.617,87.689L152.747,87.689L152.747,98.219C152.747,100.469 154.367,101.489 156.287,101.489C157.967,101.489 159.437,100.799 160.097,100.499L159.467,98.399Z" style="fill:white;fill-rule:nonzero;"/>
            </g>
            <g transform="matrix(0.865853,-0.500299,0.500299,0.865853,-21.0758,96.6368)">
                <path d="M177.284,87.919C181.064,87.919 183.494,86.059 183.494,83.149C183.494,80.479 181.514,79.639 177.344,78.649C174.674,77.989 173.654,77.659 173.654,76.189C173.654,74.389 175.184,73.609 177.104,73.609C178.814,73.609 180.524,74.179 181.844,75.349L183.044,73.759C181.634,72.529 179.504,71.689 177.164,71.689C173.834,71.689 171.164,73.399 171.164,76.549C171.164,79.009 172.754,79.729 176.534,80.659C179.534,81.379 180.944,81.829 180.944,83.389C180.944,85.009 179.474,85.969 177.224,85.969C175.214,85.969 173.384,85.249 171.554,83.869L170.414,85.639C172.154,87.109 174.794,87.919 177.284,87.919Z" style="fill:white;fill-rule:nonzero;"/>
            </g>
            <g transform="matrix(0.94942,-0.31401,0.31401,0.94942,-9.89294,70.5467)">
                <path d="M220.186,66.282C222.616,66.282 224.866,65.262 226.276,63.402L226.336,64.512C226.456,65.382 227.086,66.102 228.136,66.102C228.526,66.102 228.856,66.072 229.396,65.982L229.396,63.702C228.796,63.672 228.556,63.402 228.556,62.742L228.556,56.352C228.556,52.392 226.096,50.052 222.016,50.052C219.946,50.052 217.936,50.742 215.926,52.092L216.796,53.802C218.506,52.602 220.156,51.972 221.776,51.972C224.386,51.972 225.916,53.532 225.916,56.082L225.916,57.342C224.716,56.862 223.066,56.562 221.536,56.562C217.666,56.562 214.936,58.542 214.936,61.392C214.936,64.152 217.216,66.282 220.186,66.282ZM220.876,64.302C218.926,64.302 217.456,62.952 217.456,61.182C217.456,59.382 219.286,58.152 221.926,58.152C223.276,58.152 224.686,58.422 225.916,58.902L225.916,61.212C225.916,61.572 225.706,62.022 225.346,62.382C224.506,63.552 222.736,64.302 220.876,64.302Z" style="fill:white;fill-rule:nonzero;"/>
            </g>
            <g transform="matrix(0.981387,-0.19204,0.19204,0.981387,-6.48506,47.7102)">
                <path d="M258.604,47.95C258.604,44.17 257.554,41.38 253.924,41.38C251.164,41.38 248.644,42.82 247.414,45.01L247.414,41.65L245.014,41.65L245.014,57.31L247.654,57.31L247.654,47.86C248.374,45.49 250.714,43.75 252.874,43.75C254.944,43.75 255.964,45.22 255.964,48.55L255.964,57.31L258.604,57.31L258.604,47.95Z" style="fill:white;fill-rule:nonzero;"/>
            </g>
            <g transform="matrix(0.997865,-0.0653161,0.0653161,0.997865,-2.8211,17.9867)">
                <path d="M282.254,52.439C284.504,52.439 286.754,51.209 287.984,49.199L287.984,50.519C287.984,51.419 288.884,52.259 289.934,52.259C290.264,52.259 290.534,52.229 291.104,52.139L291.104,49.859C290.504,49.829 290.264,49.559 290.264,48.899L290.264,30.239L287.624,30.239L287.624,39.599C286.484,37.709 284.414,36.209 281.894,36.209C277.754,36.209 274.784,39.899 274.784,44.339C274.784,48.659 277.904,52.439 282.254,52.439ZM282.884,50.159C279.854,50.159 277.514,47.519 277.514,44.369C277.514,41.369 279.554,38.489 282.644,38.489C284.624,38.489 286.874,40.109 287.624,42.149L287.624,46.649C287.234,48.599 284.774,50.159 282.884,50.159Z" style="fill:white;fill-rule:nonzero;"/>
            </g>
            <g transform="matrix(0.989461,0.144797,-0.144797,0.989461,11.0069,-46.676)">
                <path d="M344.07,30.977L326.67,30.977L326.67,33.377L334.02,33.377L334.02,52.277L336.72,52.277L336.72,33.377L344.07,33.377L344.07,30.977Z" style="fill:white;fill-rule:nonzero;"/>
            </g>
            <g transform="matrix(0.966176,0.257883,-0.257883,0.966176,26.6854,-89.4489)">
                <path d="M363.395,57.304C366.545,57.304 369.215,55.654 370.235,53.344L367.955,52.714C367.295,54.274 365.405,55.324 363.485,55.324C360.755,55.324 358.445,53.164 358.205,50.074L371.195,50.074C371.225,49.894 371.255,49.474 371.255,49.054C371.255,44.854 368.165,41.074 363.425,41.074C358.715,41.074 355.415,44.764 355.415,49.174C355.415,53.584 358.685,57.304 363.395,57.304ZM358.145,48.124C358.355,45.154 360.635,43.054 363.425,43.054C366.215,43.054 368.495,45.124 368.765,48.124L358.145,48.124Z" style="fill:white;fill-rule:nonzero;"/>
            </g>
            <g transform="matrix(0.928134,0.372247,-0.372247,0.928134,52.1602,-138.31)">
                <path d="M391.905,66.233C395.685,66.233 398.115,64.373 398.115,61.463C398.115,58.793 396.135,57.953 391.965,56.963C389.295,56.303 388.275,55.973 388.275,54.503C388.275,52.703 389.805,51.923 391.725,51.923C393.435,51.923 395.145,52.493 396.465,53.663L397.665,52.073C396.255,50.843 394.125,50.003 391.785,50.003C388.455,50.003 385.785,51.713 385.785,54.863C385.785,57.323 387.375,58.043 391.155,58.973C394.155,59.693 395.565,60.143 395.565,61.703C395.565,63.323 394.095,64.283 391.845,64.283C389.835,64.283 388.005,63.563 386.175,62.183L385.035,63.953C386.775,65.423 389.415,66.233 391.905,66.233Z" style="fill:white;fill-rule:nonzero;"/>
            </g>
            <g transform="matrix(0.882735,0.469871,-0.469871,0.882735,84.3898,-183.687)">
                <path d="M419.804,74.348C419.504,74.528 418.544,75.008 417.494,75.008C416.564,75.008 415.784,74.498 415.724,73.358L415.724,63.638L419.234,63.638L419.234,61.568L415.724,61.568L415.724,56.348L413.084,56.348L413.084,61.568L410.954,61.568L410.954,63.638L413.084,63.638L413.084,74.168C413.084,76.418 414.704,77.438 416.624,77.438C418.304,77.438 419.774,76.748 420.434,76.448L419.804,74.348Z" style="fill:white;fill-rule:nonzero;"/>
            </g>
            <g transform="matrix(0.837359,0.546653,-0.546653,0.837359,118.841,-221.179)">
                <path d="M435.894,89.129L435.894,73.469L433.254,73.469L433.254,89.129L435.894,89.129ZM435.894,70.529L435.894,67.229L433.254,67.229L433.254,70.529L435.894,70.529Z" style="fill:white;fill-rule:nonzero;"/>
            </g>
            <g transform="matrix(0.775825,0.630949,-0.630949,0.775825,163.932,-260.099)">
                <path d="M463.715,91.286C463.715,87.506 462.665,84.716 459.035,84.716C456.275,84.716 453.755,86.156 452.525,88.346L452.525,84.986L450.125,84.986L450.125,100.646L452.765,100.646L452.765,91.196C453.485,88.826 455.825,87.086 457.985,87.086C460.055,87.086 461.075,88.556 461.075,91.886L461.075,100.646L463.715,100.646L463.715,91.286Z" style="fill:white;fill-rule:nonzero;"/>
            </g>
            <g transform="matrix(0.691005,0.72285,-0.72285,0.691005,233.177,-303.554)">
                <path d="M480.02,121.145C482.24,121.145 484.43,119.945 485.6,118.025L485.6,120.785C485.6,124.055 483.14,125.615 480.26,125.615C478.01,125.615 475.91,124.685 474.68,122.855L473.15,124.205C474.62,126.335 476.72,127.655 480.26,127.655C484.7,127.655 488.24,125.225 488.24,120.785L488.24,105.305L485.9,105.305L485.9,108.425C484.58,106.475 482.66,105.035 480.05,105.035C475.76,105.035 472.79,108.755 472.79,113.165C472.79,117.335 475.76,121.145 480.02,121.145ZM480.83,118.985C477.83,118.985 475.46,116.345 475.46,113.225C475.46,110.315 477.41,107.315 480.59,107.315C482.66,107.315 484.76,108.845 485.6,110.975L485.6,115.475C485.18,117.245 483.05,118.985 480.83,118.985Z" style="fill:white;fill-rule:nonzero;"/>
            </g>
            <g transform="matrix(0.515733,0.856749,-0.856749,0.515733,383.62,-354.782)">
                <path d="M506.815,151.153C506.815,156.553 510.955,162.133 516.805,162.133C520.105,162.133 523.915,160.363 525.265,157.183L523.015,155.953C521.785,158.593 519.145,159.703 516.925,159.703C512.695,159.703 509.545,155.713 509.545,151.273C509.545,147.253 512.095,142.963 516.835,142.963C518.995,142.963 521.485,143.863 522.745,146.563L524.875,145.183C523.555,142.453 520.735,140.533 516.955,140.533C510.535,140.533 506.815,145.993 506.815,151.153Z" style="fill:white;fill-rule:nonzero;"/>
            </g>
            <g transform="matrix(0.398229,0.917286,-0.917286,0.398229,490.041,-363.861)">
                <path d="M531.309,191.857C536.019,191.857 539.229,188.107 539.229,183.757C539.229,179.377 535.989,175.627 531.309,175.627C526.659,175.627 523.419,179.377 523.419,183.757C523.419,188.107 526.599,191.857 531.309,191.857ZM526.119,183.787C526.119,180.517 528.459,177.907 531.309,177.907C534.189,177.907 536.529,180.487 536.529,183.727C536.529,186.997 534.189,189.577 531.309,189.577C528.429,189.577 526.119,187.057 526.119,183.787Z" style="fill:white;fill-rule:nonzero;"/>
            </g>
            <g transform="matrix(0.277924,0.960603,-0.960603,0.277924,597.647,-353.644)">
                <path d="M549.775,211.353C549.775,207.573 548.725,204.783 545.095,204.783C542.335,204.783 539.815,206.223 538.585,208.413L538.585,205.053L536.185,205.053L536.185,220.713L538.825,220.713L538.825,211.263C539.545,208.893 541.885,207.153 544.045,207.153C546.115,207.153 547.135,208.623 547.135,211.953L547.135,220.713L549.775,220.713L549.775,211.353Z" style="fill:white;fill-rule:nonzero;"/>
            </g>
            <g transform="matrix(0.165974,0.98613,-0.98613,0.165974,699.187,-325.11)">
                <path d="M547.404,250.795L547.404,237.205L551.574,237.205L551.574,235.135L547.404,235.135L547.404,234.715C547.404,232.225 548.364,230.845 550.104,230.845C550.884,230.845 551.784,231.115 552.354,231.505L553.014,229.555C552.054,228.955 550.794,228.595 549.564,228.595C546.624,228.595 544.764,230.965 544.764,234.805L544.764,235.135L542.634,235.135L542.634,237.205L544.764,237.205L544.764,250.795L547.404,250.795Z" style="fill:white;fill-rule:nonzero;"/>
            </g>
            <g transform="matrix(0.059984,0.998199,-0.998199,0.059984,785.999,-286.726)">
                <path d="M554.296,274.262C557.446,274.262 560.116,272.612 561.136,270.302L558.856,269.672C558.196,271.232 556.306,272.282 554.386,272.282C551.656,272.282 549.346,270.122 549.106,267.032L562.096,267.032C562.126,266.852 562.156,266.432 562.156,266.012C562.156,261.812 559.066,258.032 554.326,258.032C549.616,258.032 546.316,261.722 546.316,266.132C546.316,270.542 549.586,274.262 554.296,274.262ZM549.046,265.082C549.256,262.112 551.536,260.012 554.326,260.012C557.116,260.012 559.396,262.082 559.666,265.082L549.046,265.082Z" style="fill:white;fill-rule:nonzero;"/>
            </g>
            <g transform="matrix(-0.0538584,0.998549,-0.998549,-0.0538584,880.364,-223.783)">
                <path d="M556.611,289.438C556.401,289.408 556.131,289.408 555.741,289.408C553.761,289.558 551.871,290.998 550.791,293.158L550.791,289.528L548.331,289.528L548.331,305.188L550.971,305.188L550.971,295.528C551.811,293.248 553.971,291.898 556.611,291.838L556.611,289.438Z" style="fill:white;fill-rule:nonzero;"/>
            </g>
            <g transform="matrix(-0.16132,0.986902,-0.986902,-0.16132,957.107,-155.055)">
                <path d="M553.497,329.452C556.647,329.452 559.317,327.802 560.337,325.492L558.057,324.862C557.397,326.422 555.507,327.472 553.587,327.472C550.857,327.472 548.547,325.312 548.307,322.222L561.297,322.222C561.327,322.042 561.357,321.622 561.357,321.202C561.357,317.002 558.267,313.222 553.527,313.222C548.817,313.222 545.517,316.912 545.517,321.322C545.517,325.732 548.787,329.452 553.497,329.452ZM548.247,320.272C548.457,317.302 550.737,315.202 553.527,315.202C556.317,315.202 558.597,317.272 558.867,320.272L548.247,320.272Z" style="fill:white;fill-rule:nonzero;"/>
            </g>
            <g transform="matrix(-0.285001,0.958527,-0.958527,-0.285001,1036.95,-53.8763)">
                <path d="M554.291,350.452C554.291,346.672 553.241,343.882 549.611,343.882C546.851,343.882 544.331,345.322 543.101,347.512L543.101,344.152L540.701,344.152L540.701,359.812L543.341,359.812L543.341,350.362C544.061,347.992 546.401,346.252 548.561,346.252C550.631,346.252 551.651,347.722 551.651,351.052L551.651,359.812L554.291,359.812L554.291,350.452Z" style="fill:white;fill-rule:nonzero;"/>
            </g>
            <g transform="matrix(-0.402434,0.915449,-0.915449,-0.402434,1098.2,62.0412)">
                <path d="M529.933,381.591C529.933,386.001 533.203,389.751 537.913,389.751C541.063,389.751 543.673,388.101 544.603,385.821L542.023,385.041C541.543,386.361 539.683,387.471 537.853,387.471C535.003,387.471 532.633,384.891 532.633,381.591C532.633,378.261 534.913,375.801 537.823,375.801C539.563,375.801 541.093,376.671 541.903,378.141L544.483,377.331C543.343,375.021 540.973,373.521 537.883,373.521C533.113,373.521 529.933,377.181 529.933,381.591Z" style="fill:white;fill-rule:nonzero;"/>
            </g>
            <g transform="matrix(-0.512661,0.858591,-0.858591,-0.512661,1138.31,187.04)">
                <path d="M525.135,416.875C528.285,416.875 530.955,415.225 531.975,412.915L529.695,412.285C529.035,413.845 527.145,414.895 525.225,414.895C522.495,414.895 520.185,412.735 519.945,409.645L532.935,409.645C532.965,409.465 532.995,409.045 532.995,408.625C532.995,404.425 529.905,400.645 525.165,400.645C520.455,400.645 517.155,404.335 517.155,408.745C517.155,413.155 520.425,416.875 525.135,416.875ZM519.885,407.695C520.095,404.725 522.375,402.625 525.165,402.625C527.955,402.625 530.235,404.695 530.505,407.695L519.885,407.695Z" style="fill:white;fill-rule:nonzero;"/>
            </g>
        </g>
    </g>
    <g transform="matrix(1,0,0,1,-7.76583,-5.46013)">
        <g>
            <g transform="matrix(0.836948,0.547282,-0.547282,0.836948,306.968,4.9895)">
                <path d="M161.851,498.584C159.991,497.324 157.381,496.214 154.411,496.214C150.091,496.214 146.641,498.554 146.641,502.904C146.641,506.174 148.621,507.524 152.671,508.664C156.001,509.594 158.191,510.164 158.191,511.994C158.191,513.404 157.021,514.184 154.771,514.184C151.531,514.184 148.321,512.294 147.601,511.574L145.771,515.144C148.231,516.884 151.531,517.904 154.711,517.904C158.881,517.904 162.601,516.164 162.601,511.574C162.601,507.674 159.961,506.354 155.761,505.274C152.551,504.434 150.901,503.984 150.901,502.244C150.901,500.714 152.041,499.844 154.291,499.844C156.841,499.844 159.481,501.344 160.021,501.944L161.851,498.584Z" style="fill:white;fill-rule:nonzero;"/>
            </g>
            <g transform="matrix(0.892433,0.451181,-0.451181,0.892433,258.994,-19.4924)">
                <path d="M179.466,533.715C184.596,533.715 187.686,529.905 187.686,525.585C187.686,521.205 184.566,517.425 179.466,517.425C174.366,517.425 171.216,521.205 171.216,525.585C171.216,529.905 174.336,533.715 179.466,533.715ZM175.356,525.585C175.356,522.855 177.156,520.845 179.466,520.845C181.776,520.845 183.576,522.825 183.576,525.555C183.576,528.315 181.776,530.295 179.466,530.295C177.156,530.295 175.356,528.345 175.356,525.585Z" style="fill:white;fill-rule:nonzero;"/>
            </g>
            <g transform="matrix(0.938811,0.344433,-0.344433,0.938811,200.22,-34.4732)">
                <path d="M198.065,535.483C198.065,540.883 202.325,546.463 208.385,546.463C211.835,546.463 215.825,544.693 217.145,541.513L213.755,539.563C212.765,541.873 210.455,542.803 208.505,542.803C204.815,542.803 202.265,539.383 202.265,535.603C202.265,532.213 204.305,528.523 208.445,528.523C210.335,528.523 212.585,529.303 213.665,531.703L216.845,529.513C215.465,526.753 212.465,524.863 208.565,524.863C201.935,524.863 198.065,530.293 198.065,535.483Z" style="fill:white;fill-rule:nonzero;"/>
            </g>
            <g transform="matrix(0.969603,0.244685,-0.244685,0.969603,143.073,-38.6789)">
                <path d="M238.4,540.594C238.22,540.564 238.01,540.564 237.59,540.564C235.91,540.564 233.84,542.004 232.73,544.134L232.73,540.774L229.04,540.774L229.04,556.494L233.06,556.494L233.06,546.984C233.9,545.214 235.97,544.284 238.4,544.254L238.4,540.594Z" style="fill:white;fill-rule:nonzero;"/>
            </g>
            <g transform="matrix(0.987867,0.155302,-0.155302,0.987867,90.244,-31.8501)">
                <path d="M255.083,561.937C257.363,561.937 259.433,560.947 260.843,559.117L260.933,559.987C261.143,561.097 261.953,561.847 263.453,561.847C263.933,561.847 264.503,561.787 265.223,561.637L265.223,558.217C264.533,558.187 264.263,557.857 264.263,557.017L264.263,552.127C264.263,547.957 261.623,545.647 257.123,545.647C254.783,545.647 252.623,546.307 250.583,547.657L251.813,550.207C253.493,549.037 255.053,548.437 256.733,548.437C259.043,548.437 260.243,549.607 260.243,551.677L260.243,552.577C259.223,552.127 257.813,551.887 256.403,551.887C252.473,551.887 249.713,553.957 249.713,556.957C249.713,559.807 252.023,561.937 255.083,561.937ZM256.223,558.997C254.693,558.997 253.523,557.977 253.523,556.627C253.523,555.187 254.993,554.137 257.063,554.137C258.083,554.137 259.283,554.377 260.243,554.737L260.243,556.537C260.243,556.927 260.003,557.347 259.583,557.677C258.893,558.487 257.573,558.997 256.223,558.997Z" style="fill:white;fill-rule:nonzero;"/>
            </g>
            <g transform="matrix(0.998152,0.0607742,-0.0607742,0.998152,34.8523,-15.5766)">
                <path d="M291.642,543.855L273.912,543.855L273.912,547.485L280.722,547.485L280.722,565.155L284.832,565.155L284.832,547.485L291.642,547.485L291.642,543.855Z" style="fill:white;fill-rule:nonzero;"/>
            </g>
            <g transform="matrix(0.999392,-0.0348681,0.0348681,0.999392,-19.5661,10.7934)">
                <path d="M308.793,566.672C312.273,566.672 314.973,564.962 316.113,562.562L312.663,561.602C312.153,562.892 310.533,563.732 308.943,563.732C306.843,563.732 304.983,562.262 304.773,559.802L316.923,559.802C316.983,559.472 317.013,558.962 317.013,558.452C317.013,554.192 313.953,550.382 308.823,550.382C303.693,550.382 300.513,554.132 300.513,558.602C300.513,562.952 303.723,566.672 308.793,566.672ZM304.713,557.192C304.893,554.852 306.603,553.292 308.763,553.292C310.953,553.292 312.663,554.852 312.873,557.192L304.713,557.192Z" style="fill:white;fill-rule:nonzero;"/>
            </g>
            <g transform="matrix(0.990679,-0.136218,0.136218,0.990679,-73.8608,50.0435)">
                <path d="M336.504,565.018C340.404,565.018 342.864,563.098 342.864,560.038C342.864,557.398 341.124,556.378 336.774,555.298C334.464,554.698 333.684,554.398 333.684,553.318C333.684,552.088 334.734,551.548 336.084,551.548C337.554,551.548 339.054,552.088 340.644,553.288L342.264,550.858C340.554,549.358 338.454,548.698 336.114,548.698C332.604,548.698 329.934,550.678 329.934,553.888C329.934,556.288 331.434,557.158 335.544,558.268C338.004,558.928 338.994,559.288 338.994,560.398C338.994,561.508 338.004,562.138 336.414,562.138C334.614,562.138 332.784,561.418 330.894,560.068L329.394,562.588C331.164,564.148 333.894,565.018 336.504,565.018Z" style="fill:white;fill-rule:nonzero;"/>
            </g>
            <g transform="matrix(0.952471,-0.304628,0.304628,0.952471,-151.855,139.683)">
                <path d="M388.93,556.487L388.93,552.857L378.07,552.857L378.07,535.187L373.93,535.187L373.93,556.487L388.93,556.487Z" style="fill:white;fill-rule:nonzero;"/>
            </g>
            <g transform="matrix(0.923423,-0.383784,0.383784,0.923423,-179.513,194.85)">
                <path d="M404.36,547.261L404.36,531.541L400.34,531.541L400.34,547.261L404.36,547.261ZM404.36,529.351L404.36,525.361L400.34,525.361L400.34,529.351L404.36,529.351Z" style="fill:white;fill-rule:nonzero;"/>
            </g>
            <g transform="matrix(0.885569,-0.464508,0.464508,0.885569,-203.246,254.802)">
                <path d="M431.973,530.106C431.973,527.046 431.163,523.926 427.233,523.926C424.503,523.926 422.163,525.126 420.993,527.106L420.993,524.196L417.363,524.196L417.363,539.916L421.383,539.916L421.383,530.736C421.983,528.846 423.843,527.466 425.463,527.466C427.023,527.466 427.953,528.576 427.953,531.096L427.953,539.916L431.973,539.916L431.973,530.106Z" style="fill:white;fill-rule:nonzero;"/>
            </g>
            <g transform="matrix(0.833334,-0.55277,0.55277,0.833334,-217.074,331.489)">
                <path d="M441.956,525.721L455.096,525.721L455.096,522.901L446.246,522.901L454.946,512.461L454.946,510.001L442.316,510.001L442.316,512.821L450.716,512.821L441.956,523.261L441.956,525.721Z" style="fill:white;fill-rule:nonzero;"/>
            </g>
        </g>
    </g>
    <g transform="matrix(1,0,0,1,-6,14)">
        <path d="M376.25,221L330,221C328.278,220.936 327.994,220.77 327.26,220.482C324.483,219.392 322.615,216.563 322.5,213.5L322.5,141.5C322.635,137.879 325.326,134.62 328.882,134.084C329.376,134.009 329.502,134.019 330,134L438,134C438.187,134.007 438.374,134.014 438.56,134.021C440.273,134.214 440.543,134.4 441.254,134.743C443.78,135.959 445.394,138.669 445.5,141.5L445.5,213.5C445.436,215.222 445.27,215.505 444.982,216.24C443.892,219.016 441.063,220.885 438,221L391.75,221L391.75,232.779L415.75,232.779C415.787,232.785 421.356,233.726 422.803,237.73C424.374,242.076 421.028,247.57 416.056,247.773C415.954,247.777 415.852,247.777 415.75,247.779L384.25,247.779C384.165,247.777 384.08,247.774 383.996,247.77C383.914,247.774 383.832,247.777 383.75,247.779L352.25,247.779C345.752,247.647 341.797,237.351 348.723,233.66C349.533,233.228 350.423,232.947 351.334,232.835C351.638,232.798 351.944,232.785 352.25,232.779L376.25,232.779L376.25,221ZM430.5,149L337.5,149L337.5,206L430.5,206L430.5,149Z" style="fill:rgb(214,37,51);fill-rule:nonzero;"/>
    </g>
    <g transform="matrix(1,0,0,1,3,-4)">
        <path d="M257,445.5L149,445.5C147.278,445.436 146.994,445.27 146.26,444.982C143.484,443.892 141.615,441.063 141.5,438L141.5,329C141.564,327.278 141.73,326.994 142.018,326.26C143.108,323.484 145.937,321.615 149,321.5L257,321.5C257.187,321.507 257.374,321.514 257.56,321.521C260.966,321.905 263.909,324.52 264.416,327.882C264.491,328.376 264.481,328.502 264.5,329L264.5,438C264.365,441.621 261.674,444.88 258.118,445.416C257.624,445.491 257.498,445.481 257,445.5ZM249.5,336.5L156.5,336.5L156.5,430.5L249.5,430.5L249.5,336.5ZM235.199,353.745C238.64,354.09 239.122,355.023 240.116,356.076C242.749,358.864 242.69,363.646 239.967,366.529L195.419,411.077C194.424,412.018 194.065,412.196 193.37,412.531C190.847,413.746 187.655,413.404 185.44,411.638C185.147,411.404 185.084,411.334 184.813,411.077L166.033,392.298C164.829,391.023 164.59,390.45 164.237,389.414C162.619,384.664 167.048,378.722 172.51,379.587C174.063,379.833 175.499,380.614 176.64,381.691L190.116,395.167L229.36,355.923C229.36,355.923 232.346,353.623 235.199,353.745Z" style="fill:rgb(214,37,51);fill-rule:nonzero;"/>
    </g>
    <g transform="matrix(1,0,0,1,-5.95033,-3.85727)">
        <path d="M368.331,372.667L337.274,372.667C336.037,372.642 335.631,372.525 334.899,372.281C331.943,371.294 329.838,368.313 329.774,365.167L329.774,334.11C329.855,330.088 332.875,326.699 337.274,326.61C337.375,326.612 337.476,326.614 337.576,326.617C338.811,326.691 339.212,326.824 339.934,327.098C342.753,328.167 344.713,331.06 344.774,334.11L344.774,344.607C345.53,343.93 346.304,343.268 347.071,342.622C357.071,334.183 370.244,329.518 383.167,329.559C406.664,329.783 429.067,346.103 435.93,369.155C441.494,387.845 436.273,409.36 422.686,423.441C406.178,440.55 378.141,445.304 356.706,433.856C348.329,429.383 341.17,422.726 336.053,414.719C336.053,414.719 334.171,411.718 334.864,408.691C335.698,405.049 339.584,402.374 343.323,402.954C346.634,403.467 348.435,406.62 350.953,409.847C361.168,422.934 379.74,428.694 395.765,423.267C407.957,419.137 417.88,408.85 421.554,396.512C427.586,376.249 415.299,352.183 393.87,346.091C379.588,342.031 363.38,346.494 353.025,357.667L368.331,357.667C368.359,357.674 375.831,359.503 375.831,365.167C375.831,369.085 372.358,372.586 368.331,372.667Z" style="fill:white;fill-rule:nonzero;"/>
    </g>
    <g transform="matrix(1,0,0,1,3,-0.864386)">
        <path d="M186.875,254.5L120.625,254.5C114.899,254.5 110.25,249.851 110.25,244.125L110.25,223.375C110.25,217.649 114.126,215.194 120.625,213L133.014,210.008C137.971,215.958 145.422,219.738 153.75,219.738C162.078,219.738 169.529,215.958 174.486,210.008L186.875,213C193.405,214.702 197.25,217.649 197.25,223.375L197.25,244.125C197.25,249.851 192.601,254.5 186.875,254.5ZM229.39,242.251L201.763,242.251L201.953,240.368L201.953,219.618C201.953,217.471 201.412,215.714 200.4,214.282L202.89,214.441C209.552,214.441 215.514,211.417 219.479,206.657L229.39,209.051C234.614,210.412 237.69,212.77 237.69,217.351L237.69,233.951C237.69,238.477 234.059,242.162 229.39,242.251ZM264.291,233.052L242.19,233.052L242.342,231.546L242.342,214.946C242.342,213.228 241.909,211.823 241.099,210.677L243.091,210.805C248.421,210.805 253.19,208.385 256.362,204.577L264.291,206.492C268.47,207.581 270.931,209.467 270.931,213.132L270.931,226.412C270.931,230.033 268.026,232.981 264.291,233.052ZM153.75,167.008C166.854,167.008 177.492,177.646 177.492,190.75C177.492,203.854 166.854,214.492 153.75,214.492C140.646,214.492 130.008,203.854 130.008,190.75C130.008,177.646 140.646,167.008 153.75,167.008ZM201.89,171.257C212.373,171.257 220.884,179.768 220.884,190.251C220.884,200.734 212.373,209.244 201.89,209.244C191.407,209.244 182.896,200.734 182.896,190.251C182.896,179.768 191.407,171.257 201.89,171.257ZM242.091,175.257C250.478,175.257 257.286,182.066 257.286,190.452C257.286,198.838 250.478,205.647 242.091,205.647C233.705,205.647 226.896,198.838 226.896,190.452C226.896,182.066 233.705,175.257 242.091,175.257Z" style="fill:white;"/>
    </g>
</svg>
