<?xml version="1.0" encoding="UTF-8" standalone="no"?>
<!DOCTYPE svg PUBLIC "-//W3C//DTD SVG 1.1//EN" "http://www.w3.org/Graphics/SVG/1.1/DTD/svg11.dtd">
<svg width="100%" height="100%" viewBox="0 0 579 581" version="1.1" xmlns="http://www.w3.org/2000/svg" xmlns:xlink="http://www.w3.org/1999/xlink" xml:space="preserve" xmlns:serif="http://www.serif.com/" style="fill-rule:evenodd;clip-rule:evenodd;stroke-linecap:round;stroke-linejoin:round;stroke-miterlimit:1.5;">
    <g transform="matrix(1,0,0,1,0,5)">
        <g transform="matrix(1.03204,0,0,1.03204,-18.627,-14.3707)">
            <path d="M300.5,511C421.174,511 519,413.174 519,292.5L300.5,292.5L300.5,511Z" style="fill:rgb(214,37,51);"/>
        </g>
        <g transform="matrix(-1.03204,0,0,-1.03204,601.627,589.371)">
            <path d="M300.5,511C421.174,511 519,413.174 519,292.5L300.5,292.5L300.5,511Z" style="fill:rgb(214,37,51);"/>
        </g>
        <g transform="matrix(-1.03204,0,0,1.03204,601.627,-14.3707)">
            <path d="M300.5,511C421.174,511 519,413.174 519,292.5L300.5,292.5L300.5,511Z" style="fill:white;"/>
        </g>
        <g transform="matrix(1.03204,0,0,-1.03204,-18.627,589.371)">
            <path d="M300.5,511C421.174,511 519,413.174 519,292.5L300.5,292.5L300.5,511Z" style="fill:white;"/>
        </g>
    </g>
    <g transform="matrix(1.18307,0,0,1.18307,-64.0114,-53.5469)">
        <circle cx="300.5" cy="292.5" r="218.5" style="fill:none;stroke:rgb(214,37,51);stroke-width:34.66px;"/>
    </g>
    <g transform="matrix(1,0,0,1,-6.76583,-5.46013)">
        <g>
            <g transform="matrix(-0.560409,-0.828216,0.828216,-0.560409,-211.894,774.792)">
                <path d="M115.99,424.609C114.19,423.139 111.85,422.179 109,422.179C104.59,422.179 101.35,424.399 101.35,428.479C101.35,431.869 103.6,433.039 107.92,434.089C111.88,435.049 114.07,435.769 114.07,438.169C114.07,440.299 112.3,441.409 109.27,441.409C106.03,441.409 103.12,439.909 101.83,438.559L100.54,440.839C102.94,442.789 105.94,443.839 109.21,443.839C113.59,443.839 116.95,442.009 116.95,437.899C116.95,434.059 114.19,432.799 109.75,431.809C105.91,430.939 104.14,430.339 104.14,428.059C104.14,425.899 105.64,424.579 108.94,424.579C111.49,424.579 113.74,425.689 114.73,426.799L115.99,424.609Z" style="fill:white;fill-rule:nonzero;"/>
            </g>
            <g transform="matrix(-0.452028,-0.892004,0.892004,-0.452028,-251.929,679.964)">
                <path d="M91.862,417.664C96.572,417.664 99.782,413.914 99.782,409.564C99.782,405.184 96.542,401.434 91.862,401.434C87.212,401.434 83.972,405.184 83.972,409.564C83.972,413.914 87.152,417.664 91.862,417.664ZM86.672,409.594C86.672,406.324 89.012,403.714 91.862,403.714C94.742,403.714 97.082,406.294 97.082,409.534C97.082,412.804 94.742,415.384 91.862,415.384C88.982,415.384 86.672,412.864 86.672,409.594Z" style="fill:white;fill-rule:nonzero;"/>
            </g>
            <g transform="matrix(-0.348947,-0.937142,0.937142,-0.348947,-270.968,591.118)">
                <path d="M75.457,389.683L75.457,376.093L79.627,376.093L79.627,374.023L75.457,374.023L75.457,373.603C75.457,371.113 76.417,369.733 78.157,369.733C78.937,369.733 79.837,370.003 80.407,370.393L81.067,368.443C80.107,367.843 78.847,367.483 77.617,367.483C74.677,367.483 72.817,369.853 72.817,373.693L72.817,374.023L70.687,374.023L70.687,376.093L72.817,376.093L72.817,389.683L75.457,389.683Z" style="fill:white;fill-rule:nonzero;"/>
            </g>
            <g transform="matrix(-0.261078,-0.965318,0.965318,-0.261078,-276.518,523.948)">
                <path d="M71.874,364.927C71.574,365.107 70.614,365.587 69.564,365.587C68.634,365.587 67.854,365.077 67.794,363.937L67.794,354.217L71.304,354.217L71.304,352.147L67.794,352.147L67.794,346.927L65.154,346.927L65.154,352.147L63.024,352.147L63.024,354.217L65.154,354.217L65.154,364.747C65.154,366.997 66.774,368.017 68.694,368.017C70.374,368.017 71.844,367.327 72.504,367.027L71.874,364.927Z" style="fill:white;fill-rule:nonzero;"/>
            </g>
            <g transform="matrix(-0.14012,-0.990135,0.990135,-0.14012,-277.215,449.27)">
                <path d="M72.856,342.398L70.216,335.888L72.886,329.378L70.696,329.378L68.776,334.388L66.856,329.378L64.666,329.378L67.366,335.888L64.726,342.398L59.326,329.348L56.806,329.348L63.466,345.008L65.656,345.008L68.776,337.358L71.926,345.008L74.116,345.008L80.776,329.348L78.226,329.348L72.856,342.398Z" style="fill:white;fill-rule:nonzero;"/>
            </g>
            <g transform="matrix(-0.0081262,-0.999967,0.999967,-0.0081262,-255.319,363.017)">
                <path d="M58.53,308.434C60.96,308.434 63.21,307.414 64.62,305.554L64.68,306.664C64.8,307.534 65.43,308.254 66.48,308.254C66.87,308.254 67.2,308.224 67.74,308.134L67.74,305.854C67.14,305.824 66.9,305.554 66.9,304.894L66.9,298.504C66.9,294.544 64.44,292.204 60.36,292.204C58.29,292.204 56.28,292.894 54.27,294.244L55.14,295.954C56.85,294.754 58.5,294.124 60.12,294.124C62.73,294.124 64.26,295.684 64.26,298.234L64.26,299.494C63.06,299.014 61.41,298.714 59.88,298.714C56.01,298.714 53.28,300.694 53.28,303.544C53.28,306.304 55.56,308.434 58.53,308.434ZM59.22,306.454C57.27,306.454 55.8,305.104 55.8,303.334C55.8,301.534 57.63,300.304 60.27,300.304C61.62,300.304 63.03,300.574 64.26,301.054L64.26,303.364C64.26,303.724 64.05,304.174 63.69,304.534C62.85,305.704 61.08,306.454 59.22,306.454Z" style="fill:white;fill-rule:nonzero;"/>
            </g>
            <g transform="matrix(0.10254,-0.994729,0.994729,0.10254,-229.611,302.746)">
                <path d="M63.384,262.872C63.174,262.842 62.904,262.842 62.514,262.842C60.534,262.992 58.644,264.432 57.564,266.592L57.564,262.962L55.104,262.962L55.104,278.622L57.744,278.622L57.744,268.962C58.584,266.682 60.744,265.332 63.384,265.272L63.384,262.872Z" style="fill:white;fill-rule:nonzero;"/>
            </g>
            <g transform="matrix(0.207586,-0.978217,0.978217,0.207586,-205.539,256.92)">
                <path d="M64.872,255.626C68.022,255.626 70.692,253.976 71.712,251.666L69.432,251.036C68.772,252.596 66.882,253.646 64.962,253.646C62.232,253.646 59.922,251.486 59.682,248.396L72.672,248.396C72.702,248.216 72.732,247.796 72.732,247.376C72.732,243.176 69.642,239.396 64.902,239.396C60.192,239.396 56.892,243.086 56.892,247.496C56.892,251.906 60.162,255.626 64.872,255.626ZM59.622,246.446C59.832,243.476 62.112,241.376 64.902,241.376C67.692,241.376 69.972,243.446 70.242,246.446L59.622,246.446Z" style="fill:white;fill-rule:nonzero;"/>
            </g>
            <g transform="matrix(0.41081,-0.911721,0.911721,0.41081,-146.911,185.039)">
                <path d="M70.881,195.386C70.881,200.786 75.021,206.366 80.871,206.366C84.171,206.366 87.981,204.596 89.331,201.416L87.081,200.186C85.851,202.826 83.211,203.936 80.991,203.936C76.761,203.936 73.611,199.946 73.611,195.506C73.611,191.486 76.161,187.196 80.901,187.196C83.061,187.196 85.551,188.096 86.811,190.796L88.941,189.416C87.621,186.686 84.801,184.766 81.021,184.766C74.601,184.766 70.881,190.226 70.881,195.386Z" style="fill:white;fill-rule:nonzero;"/>
            </g>
            <g transform="matrix(0.515733,-0.856749,0.856749,0.515733,-110.166,157.56)">
                <path d="M94.702,160.481C94.492,160.451 94.222,160.451 93.832,160.451C91.852,160.601 89.962,162.041 88.882,164.201L88.882,160.571L86.422,160.571L86.422,176.231L89.062,176.231L89.062,166.571C89.902,164.291 92.062,162.941 94.702,162.881L94.702,160.481Z" style="fill:white;fill-rule:nonzero;"/>
            </g>
            <g transform="matrix(0.601543,-0.79884,0.79884,0.601543,-86.06,139.67)">
                <path d="M103.128,156.403C105.558,156.403 107.808,155.383 109.218,153.523L109.278,154.633C109.398,155.503 110.028,156.223 111.078,156.223C111.468,156.223 111.798,156.193 112.338,156.103L112.338,153.823C111.738,153.793 111.498,153.523 111.498,152.863L111.498,146.473C111.498,142.513 109.038,140.173 104.958,140.173C102.888,140.173 100.878,140.863 98.868,142.213L99.738,143.923C101.448,142.723 103.098,142.093 104.718,142.093C107.328,142.093 108.858,143.653 108.858,146.203L108.858,147.463C107.658,146.983 106.008,146.683 104.478,146.683C100.608,146.683 97.878,148.663 97.878,151.513C97.878,154.273 100.158,156.403 103.128,156.403ZM103.818,154.423C101.868,154.423 100.398,153.073 100.398,151.303C100.398,149.503 102.228,148.273 104.868,148.273C106.218,148.273 107.628,148.543 108.858,149.023L108.858,151.333C108.858,151.693 108.648,152.143 108.288,152.503C107.448,153.673 105.678,154.423 103.818,154.423Z" style="fill:white;fill-rule:nonzero;"/>
            </g>
            <g transform="matrix(0.685469,-0.728102,0.728102,0.685469,-60.6697,125.839)">
                <path d="M120.926,133.141L120.926,119.551L125.096,119.551L125.096,117.481L120.926,117.481L120.926,117.061C120.926,114.571 121.886,113.191 123.626,113.191C124.406,113.191 125.306,113.461 125.876,113.851L126.536,111.901C125.576,111.301 124.316,110.941 123.086,110.941C120.146,110.941 118.286,113.311 118.286,117.151L118.286,117.481L116.156,117.481L116.156,119.551L118.286,119.551L118.286,133.141L120.926,133.141Z" style="fill:white;fill-rule:nonzero;"/>
            </g>
            <g transform="matrix(0.748937,-0.662641,0.662641,0.748937,-44.2179,116.492)">
                <path d="M141.223,113.719C140.923,113.899 139.963,114.379 138.913,114.379C137.983,114.379 137.203,113.869 137.143,112.729L137.143,103.009L140.653,103.009L140.653,100.939L137.143,100.939L137.143,95.719L134.503,95.719L134.503,100.939L132.373,100.939L132.373,103.009L134.503,103.009L134.503,113.539C134.503,115.789 136.123,116.809 138.043,116.809C139.723,116.809 141.193,116.119 141.853,115.819L141.223,113.719Z" style="fill:white;fill-rule:nonzero;"/>
            </g>
            <g transform="matrix(0.803205,-0.595703,0.595703,0.803205,-31.0454,109.094)">
                <path d="M154.362,101.535L154.362,85.875L151.722,85.875L151.722,101.535L154.362,101.535ZM154.362,82.935L154.362,79.635L151.722,79.635L151.722,82.935L154.362,82.935Z" style="fill:white;fill-rule:nonzero;"/>
            </g>
            <g transform="matrix(0.859749,-0.510718,0.510718,0.859749,-22.7398,97.2694)">
                <path d="M181.451,80.677C181.451,76.897 180.401,74.107 176.771,74.107C174.011,74.107 171.491,75.547 170.261,77.737L170.261,74.377L167.861,74.377L167.861,90.037L170.501,90.037L170.501,80.587C171.221,78.217 173.561,76.477 175.721,76.477C177.791,76.477 178.811,77.947 178.811,81.277L178.811,90.037L181.451,90.037L181.451,80.677Z" style="fill:white;fill-rule:nonzero;"/>
            </g>
            <g transform="matrix(0.916293,-0.400508,0.400508,0.916293,-13.9723,83.3529)">
                <path d="M200.792,75.283C203.012,75.283 205.202,74.083 206.372,72.163L206.372,74.923C206.372,78.193 203.912,79.753 201.032,79.753C198.782,79.753 196.682,78.823 195.452,76.993L193.922,78.343C195.392,80.473 197.492,81.793 201.032,81.793C205.472,81.793 209.012,79.363 209.012,74.923L209.012,59.443L206.672,59.443L206.672,62.563C205.352,60.613 203.432,59.173 200.822,59.173C196.532,59.173 193.562,62.893 193.562,67.303C193.562,71.473 196.532,75.283 200.792,75.283ZM201.602,73.123C198.602,73.123 196.232,70.483 196.232,67.363C196.232,64.453 198.182,61.453 201.362,61.453C203.432,61.453 205.532,62.983 206.372,65.113L206.372,69.613C205.952,71.383 203.822,73.123 201.602,73.123Z" style="fill:white;fill-rule:nonzero;"/>
            </g>
            <g transform="matrix(0.979577,-0.201069,0.201069,0.979577,-6.6653,49.7287)">
                <path d="M247.613,57.975C250.043,57.975 252.293,56.955 253.703,55.095L253.763,56.205C253.883,57.075 254.513,57.795 255.563,57.795C255.953,57.795 256.283,57.765 256.823,57.675L256.823,55.395C256.223,55.365 255.983,55.095 255.983,54.435L255.983,48.045C255.983,44.085 253.523,41.745 249.443,41.745C247.373,41.745 245.363,42.435 243.353,43.785L244.223,45.495C245.933,44.295 247.583,43.665 249.203,43.665C251.813,43.665 253.343,45.225 253.343,47.775L253.343,49.035C252.143,48.555 250.493,48.255 248.963,48.255C245.093,48.255 242.363,50.235 242.363,53.085C242.363,55.845 244.643,57.975 247.613,57.975ZM248.303,55.995C246.353,55.995 244.883,54.645 244.883,52.875C244.883,51.075 246.713,49.845 249.353,49.845C250.703,49.845 252.113,50.115 253.343,50.595L253.343,52.905C253.343,53.265 253.133,53.715 252.773,54.075C251.933,55.245 250.163,55.995 248.303,55.995Z" style="fill:white;fill-rule:nonzero;"/>
            </g>
            <g transform="matrix(0.996833,-0.079519,0.079519,0.996833,-3.3181,21.676)">
                <path d="M286.219,43.139C286.219,39.359 285.169,36.569 281.539,36.569C278.779,36.569 276.259,38.009 275.029,40.199L275.029,36.839L272.629,36.839L272.629,52.499L275.269,52.499L275.269,43.049C275.989,40.679 278.329,38.939 280.489,38.939C282.559,38.939 283.579,40.409 283.579,43.739L283.579,52.499L286.219,52.499L286.219,43.139Z" style="fill:white;fill-rule:nonzero;"/>
            </g>
            <g transform="matrix(0.999024,0.044169,-0.044169,0.999024,2.53915,-13.2487)">
                <path d="M309.657,51.135C311.907,51.135 314.157,49.905 315.387,47.895L315.387,49.215C315.387,50.115 316.287,50.955 317.337,50.955C317.667,50.955 317.937,50.925 318.507,50.835L318.507,48.555C317.907,48.525 317.667,48.255 317.667,47.595L317.667,28.935L315.027,28.935L315.027,38.295C313.887,36.405 311.817,34.905 309.297,34.905C305.157,34.905 302.187,38.595 302.187,43.035C302.187,47.355 305.307,51.135 309.657,51.135ZM310.287,48.855C307.257,48.855 304.917,46.215 304.917,43.065C304.917,40.065 306.957,37.185 310.047,37.185C312.027,37.185 314.277,38.805 315.027,40.845L315.027,45.345C314.637,47.295 312.177,48.855 310.287,48.855Z" style="fill:white;fill-rule:nonzero;"/>
            </g>
            <g transform="matrix(0.968399,0.249406,-0.249406,0.968399,25.2121,-86.015)">
                <path d="M369.946,35.184L352.546,35.184L352.546,37.584L359.896,37.584L359.896,56.484L362.596,56.484L362.596,37.584L369.946,37.584L369.946,35.184Z" style="fill:white;fill-rule:nonzero;"/>
            </g>
            <g transform="matrix(0.93395,0.357405,-0.357405,0.93395,47.9086,-131.231)">
                <path d="M388.065,64.303C391.215,64.303 393.885,62.653 394.905,60.343L392.625,59.713C391.965,61.273 390.075,62.323 388.155,62.323C385.425,62.323 383.115,60.163 382.875,57.073L395.865,57.073C395.895,56.893 395.925,56.473 395.925,56.053C395.925,51.853 392.835,48.073 388.095,48.073C383.385,48.073 380.085,51.763 380.085,56.173C380.085,60.583 383.355,64.303 388.065,64.303ZM382.815,55.123C383.025,52.153 385.305,50.053 388.095,50.053C390.885,50.053 393.165,52.123 393.435,55.123L382.815,55.123Z" style="fill:white;fill-rule:nonzero;"/>
            </g>
            <g transform="matrix(0.885481,0.464676,-0.464676,0.885481,81.8418,-180.595)">
                <path d="M414.935,76.044C418.715,76.044 421.145,74.184 421.145,71.274C421.145,68.604 419.165,67.764 414.995,66.774C412.325,66.114 411.305,65.784 411.305,64.314C411.305,62.514 412.835,61.734 414.755,61.734C416.465,61.734 418.175,62.304 419.495,63.474L420.695,61.884C419.285,60.654 417.155,59.814 414.815,59.814C411.485,59.814 408.815,61.524 408.815,64.674C408.815,67.134 410.405,67.854 414.185,68.784C417.185,69.504 418.595,69.954 418.595,71.514C418.595,73.134 417.125,74.094 414.875,74.094C412.865,74.094 411.035,73.374 409.205,71.994L408.065,73.764C409.805,75.234 412.445,76.044 414.935,76.044Z" style="fill:white;fill-rule:nonzero;"/>
            </g>
            <g transform="matrix(0.831878,0.554958,-0.554958,0.831878,122.117,-224.448)">
                <path d="M441.102,86.445C440.802,86.625 439.842,87.105 438.792,87.105C437.862,87.105 437.082,86.595 437.022,85.455L437.022,75.735L440.532,75.735L440.532,73.665L437.022,73.665L437.022,68.445L434.382,68.445L434.382,73.665L432.252,73.665L432.252,75.735L434.382,75.735L434.382,86.265C434.382,88.515 436.002,89.535 437.922,89.535C439.602,89.535 441.072,88.845 441.732,88.545L441.102,86.445Z" style="fill:white;fill-rule:nonzero;"/>
            </g>
            <g transform="matrix(0.780978,0.624558,-0.624558,0.780978,162.931,-258.925)">
                <path d="M455.408,102.843L455.408,87.183L452.768,87.183L452.768,102.843L455.408,102.843ZM455.408,84.243L455.408,80.943L452.768,80.943L452.768,84.243L455.408,84.243Z" style="fill:white;fill-rule:nonzero;"/>
            </g>
            <g transform="matrix(0.713525,0.700629,-0.700629,0.713525,214.397,-293.316)">
                <path d="M481.599,106.157C481.599,102.377 480.549,99.587 476.919,99.587C474.159,99.587 471.639,101.027 470.409,103.217L470.409,99.857L468.009,99.857L468.009,115.517L470.649,115.517L470.649,106.067C471.369,103.697 473.709,101.957 475.869,101.957C477.939,101.957 478.959,103.427 478.959,106.757L478.959,115.517L481.599,115.517L481.599,106.157Z" style="fill:white;fill-rule:nonzero;"/>
            </g>
            <g transform="matrix(0.62237,0.782723,-0.782723,0.62237,291.584,-329.376)">
                <path d="M495.515,137.679C497.735,137.679 499.925,136.479 501.095,134.559L501.095,137.319C501.095,140.589 498.635,142.149 495.755,142.149C493.505,142.149 491.405,141.219 490.175,139.389L488.645,140.739C490.115,142.869 492.215,144.189 495.755,144.189C500.195,144.189 503.735,141.759 503.735,137.319L503.735,121.839L501.395,121.839L501.395,124.959C500.075,123.009 498.155,121.569 495.545,121.569C491.255,121.569 488.285,125.289 488.285,129.699C488.285,133.869 491.255,137.679 495.515,137.679ZM496.325,135.519C493.325,135.519 490.955,132.879 490.955,129.759C490.955,126.849 492.905,123.849 496.085,123.849C498.155,123.849 500.255,125.379 501.095,127.509L501.095,132.009C500.675,133.779 498.545,135.519 496.325,135.519Z" style="fill:white;fill-rule:nonzero;"/>
            </g>
            <g transform="matrix(0.439268,0.898356,-0.898356,0.439268,451.768,-363.038)">
                <path d="M517.868,169.573C517.868,174.973 522.008,180.553 527.858,180.553C531.158,180.553 534.968,178.783 536.318,175.603L534.068,174.373C532.838,177.013 530.198,178.123 527.978,178.123C523.748,178.123 520.598,174.133 520.598,169.693C520.598,165.673 523.148,161.383 527.888,161.383C530.048,161.383 532.538,162.283 533.798,164.983L535.928,163.603C534.608,160.873 531.788,158.953 528.008,158.953C521.588,158.953 517.868,164.413 517.868,169.573Z" style="fill:white;fill-rule:nonzero;"/>
            </g>
            <g transform="matrix(0.318959,0.947768,-0.947768,0.318959,561.025,-359.307)">
                <path d="M539.497,211.021C544.207,211.021 547.417,207.271 547.417,202.921C547.417,198.541 544.177,194.791 539.497,194.791C534.847,194.791 531.607,198.541 531.607,202.921C531.607,207.271 534.787,211.021 539.497,211.021ZM534.307,202.951C534.307,199.681 536.647,197.071 539.497,197.071C542.377,197.071 544.717,199.651 544.717,202.891C544.717,206.161 542.377,208.741 539.497,208.741C536.617,208.741 534.307,206.221 534.307,202.951Z" style="fill:white;fill-rule:nonzero;"/>
            </g>
            <g transform="matrix(0.197614,0.98028,-0.98028,0.197614,668.446,-336.204)">
                <path d="M555.314,230.86C555.314,227.08 554.264,224.29 550.634,224.29C547.874,224.29 545.354,225.73 544.124,227.92L544.124,224.56L541.724,224.56L541.724,240.22L544.364,240.22L544.364,230.77C545.084,228.4 547.424,226.66 549.584,226.66C551.654,226.66 552.674,228.13 552.674,231.46L552.674,240.22L555.314,240.22L555.314,230.86Z" style="fill:white;fill-rule:nonzero;"/>
            </g>
            <g transform="matrix(0.0870044,0.996208,-0.996208,0.0870044,766.561,-295.976)">
                <path d="M550.367,270.226L550.367,256.636L554.537,256.636L554.537,254.566L550.367,254.566L550.367,254.146C550.367,251.656 551.327,250.276 553.067,250.276C553.847,250.276 554.747,250.546 555.317,250.936L555.977,248.986C555.017,248.386 553.757,248.026 552.527,248.026C549.587,248.026 547.727,250.396 547.727,254.236L547.727,254.566L545.597,254.566L545.597,256.636L547.727,256.636L547.727,270.226L550.367,270.226Z" style="fill:white;fill-rule:nonzero;"/>
            </g>
            <g transform="matrix(-0.0160528,0.999871,-0.999871,-0.0160528,848.067,-248.567)">
                <path d="M555.398,293.297C558.548,293.297 561.218,291.647 562.238,289.337L559.958,288.707C559.298,290.267 557.408,291.317 555.488,291.317C552.758,291.317 550.448,289.157 550.208,286.067L563.198,286.067C563.228,285.887 563.258,285.467 563.258,285.047C563.258,280.847 560.168,277.067 555.428,277.067C550.718,277.067 547.418,280.757 547.418,285.167C547.418,289.577 550.688,293.297 555.398,293.297ZM550.148,284.117C550.358,281.147 552.638,279.047 555.428,279.047C558.218,279.047 560.498,281.117 560.768,284.117L550.148,284.117Z" style="fill:white;fill-rule:nonzero;"/>
            </g>
            <g transform="matrix(-0.128015,0.991772,-0.991772,-0.128015,935.703,-175.465)">
                <path d="M555.397,307.861C555.187,307.831 554.917,307.831 554.527,307.831C552.547,307.981 550.657,309.421 549.577,311.581L549.577,307.951L547.117,307.951L547.117,323.611L549.757,323.611L549.757,313.951C550.597,311.671 552.757,310.321 555.397,310.261L555.397,307.861Z" style="fill:white;fill-rule:nonzero;"/>
            </g>
            <g transform="matrix(-0.232562,0.972582,-0.972582,-0.232562,1004.77,-99.301)">
                <path d="M550.623,347.068C553.773,347.068 556.443,345.418 557.463,343.108L555.183,342.478C554.523,344.038 552.633,345.088 550.713,345.088C547.983,345.088 545.673,342.928 545.433,339.838L558.423,339.838C558.453,339.658 558.483,339.238 558.483,338.818C558.483,334.618 555.393,330.838 550.653,330.838C545.943,330.838 542.643,334.528 542.643,338.938C542.643,343.348 545.913,347.068 550.623,347.068ZM545.373,337.888C545.583,334.918 547.863,332.818 550.653,332.818C553.443,332.818 555.723,334.888 555.993,337.888L545.373,337.888Z" style="fill:white;fill-rule:nonzero;"/>
            </g>
            <g transform="matrix(-0.351831,0.936064,-0.936064,-0.351831,1073.74,9.26396)">
                <path d="M549.384,367.024C549.384,363.244 548.334,360.454 544.704,360.454C541.944,360.454 539.424,361.894 538.194,364.084L538.194,360.724L535.794,360.724L535.794,376.384L538.434,376.384L538.434,366.934C539.154,364.564 541.494,362.824 543.654,362.824C545.724,362.824 546.744,364.294 546.744,367.624L546.744,376.384L549.384,376.384L549.384,367.024Z" style="fill:white;fill-rule:nonzero;"/>
            </g>
            <g transform="matrix(-0.4635,0.886097,-0.886097,-0.4635,1122.78,129.633)">
                <path d="M523.227,396.858C523.227,401.268 526.497,405.018 531.207,405.018C534.357,405.018 536.967,403.368 537.897,401.088L535.317,400.308C534.837,401.628 532.977,402.738 531.147,402.738C528.297,402.738 525.927,400.158 525.927,396.858C525.927,393.528 528.207,391.068 531.117,391.068C532.857,391.068 534.387,391.938 535.197,393.408L537.777,392.598C536.637,390.288 534.267,388.788 531.177,388.788C526.407,388.788 523.227,392.448 523.227,396.858Z" style="fill:white;fill-rule:nonzero;"/>
            </g>
            <g transform="matrix(-0.567378,0.823458,-0.823458,-0.567378,1150.47,256.431)">
                <path d="M516.935,430.728C520.085,430.728 522.755,429.078 523.775,426.768L521.495,426.138C520.835,427.698 518.945,428.748 517.025,428.748C514.295,428.748 511.985,426.588 511.745,423.498L524.735,423.498C524.765,423.318 524.795,422.898 524.795,422.478C524.795,418.278 521.705,414.498 516.965,414.498C512.255,414.498 508.955,418.188 508.955,422.598C508.955,427.008 512.225,430.728 516.935,430.728ZM511.685,421.548C511.895,418.578 514.175,416.478 516.965,416.478C519.755,416.478 522.035,418.548 522.305,421.548L511.685,421.548Z" style="fill:white;fill-rule:nonzero;"/>
            </g>
        </g>
    </g>
    <g transform="matrix(1,0,0,1,-7.76583,-5.46013)">
        <g>
            <g transform="matrix(0.836948,0.547282,-0.547282,0.836948,306.968,4.9895)">
                <path d="M161.851,498.584C159.991,497.324 157.381,496.214 154.411,496.214C150.091,496.214 146.641,498.554 146.641,502.904C146.641,506.174 148.621,507.524 152.671,508.664C156.001,509.594 158.191,510.164 158.191,511.994C158.191,513.404 157.021,514.184 154.771,514.184C151.531,514.184 148.321,512.294 147.601,511.574L145.771,515.144C148.231,516.884 151.531,517.904 154.711,517.904C158.881,517.904 162.601,516.164 162.601,511.574C162.601,507.674 159.961,506.354 155.761,505.274C152.551,504.434 150.901,503.984 150.901,502.244C150.901,500.714 152.041,499.844 154.291,499.844C156.841,499.844 159.481,501.344 160.021,501.944L161.851,498.584Z" style="fill:white;fill-rule:nonzero;"/>
            </g>
            <g transform="matrix(0.892433,0.451181,-0.451181,0.892433,258.994,-19.4924)">
                <path d="M179.466,533.715C184.596,533.715 187.686,529.905 187.686,525.585C187.686,521.205 184.566,517.425 179.466,517.425C174.366,517.425 171.216,521.205 171.216,525.585C171.216,529.905 174.336,533.715 179.466,533.715ZM175.356,525.585C175.356,522.855 177.156,520.845 179.466,520.845C181.776,520.845 183.576,522.825 183.576,525.555C183.576,528.315 181.776,530.295 179.466,530.295C177.156,530.295 175.356,528.345 175.356,525.585Z" style="fill:white;fill-rule:nonzero;"/>
            </g>
            <g transform="matrix(0.938811,0.344433,-0.344433,0.938811,200.22,-34.4732)">
                <path d="M198.065,535.483C198.065,540.883 202.325,546.463 208.385,546.463C211.835,546.463 215.825,544.693 217.145,541.513L213.755,539.563C212.765,541.873 210.455,542.803 208.505,542.803C204.815,542.803 202.265,539.383 202.265,535.603C202.265,532.213 204.305,528.523 208.445,528.523C210.335,528.523 212.585,529.303 213.665,531.703L216.845,529.513C215.465,526.753 212.465,524.863 208.565,524.863C201.935,524.863 198.065,530.293 198.065,535.483Z" style="fill:white;fill-rule:nonzero;"/>
            </g>
            <g transform="matrix(0.969603,0.244685,-0.244685,0.969603,143.073,-38.6789)">
                <path d="M238.4,540.594C238.22,540.564 238.01,540.564 237.59,540.564C235.91,540.564 233.84,542.004 232.73,544.134L232.73,540.774L229.04,540.774L229.04,556.494L233.06,556.494L233.06,546.984C233.9,545.214 235.97,544.284 238.4,544.254L238.4,540.594Z" style="fill:white;fill-rule:nonzero;"/>
            </g>
            <g transform="matrix(0.987867,0.155302,-0.155302,0.987867,90.244,-31.8501)">
                <path d="M255.083,561.937C257.363,561.937 259.433,560.947 260.843,559.117L260.933,559.987C261.143,561.097 261.953,561.847 263.453,561.847C263.933,561.847 264.503,561.787 265.223,561.637L265.223,558.217C264.533,558.187 264.263,557.857 264.263,557.017L264.263,552.127C264.263,547.957 261.623,545.647 257.123,545.647C254.783,545.647 252.623,546.307 250.583,547.657L251.813,550.207C253.493,549.037 255.053,548.437 256.733,548.437C259.043,548.437 260.243,549.607 260.243,551.677L260.243,552.577C259.223,552.127 257.813,551.887 256.403,551.887C252.473,551.887 249.713,553.957 249.713,556.957C249.713,559.807 252.023,561.937 255.083,561.937ZM256.223,558.997C254.693,558.997 253.523,557.977 253.523,556.627C253.523,555.187 254.993,554.137 257.063,554.137C258.083,554.137 259.283,554.377 260.243,554.737L260.243,556.537C260.243,556.927 260.003,557.347 259.583,557.677C258.893,558.487 257.573,558.997 256.223,558.997Z" style="fill:white;fill-rule:nonzero;"/>
            </g>
            <g transform="matrix(0.998152,0.0607742,-0.0607742,0.998152,34.8523,-15.5766)">
                <path d="M291.642,543.855L273.912,543.855L273.912,547.485L280.722,547.485L280.722,565.155L284.832,565.155L284.832,547.485L291.642,547.485L291.642,543.855Z" style="fill:white;fill-rule:nonzero;"/>
            </g>
            <g transform="matrix(0.999392,-0.0348681,0.0348681,0.999392,-19.5661,10.7934)">
                <path d="M308.793,566.672C312.273,566.672 314.973,564.962 316.113,562.562L312.663,561.602C312.153,562.892 310.533,563.732 308.943,563.732C306.843,563.732 304.983,562.262 304.773,559.802L316.923,559.802C316.983,559.472 317.013,558.962 317.013,558.452C317.013,554.192 313.953,550.382 308.823,550.382C303.693,550.382 300.513,554.132 300.513,558.602C300.513,562.952 303.723,566.672 308.793,566.672ZM304.713,557.192C304.893,554.852 306.603,553.292 308.763,553.292C310.953,553.292 312.663,554.852 312.873,557.192L304.713,557.192Z" style="fill:white;fill-rule:nonzero;"/>
            </g>
            <g transform="matrix(0.990679,-0.136218,0.136218,0.990679,-73.8608,50.0435)">
                <path d="M336.504,565.018C340.404,565.018 342.864,563.098 342.864,560.038C342.864,557.398 341.124,556.378 336.774,555.298C334.464,554.698 333.684,554.398 333.684,553.318C333.684,552.088 334.734,551.548 336.084,551.548C337.554,551.548 339.054,552.088 340.644,553.288L342.264,550.858C340.554,549.358 338.454,548.698 336.114,548.698C332.604,548.698 329.934,550.678 329.934,553.888C329.934,556.288 331.434,557.158 335.544,558.268C338.004,558.928 338.994,559.288 338.994,560.398C338.994,561.508 338.004,562.138 336.414,562.138C334.614,562.138 332.784,561.418 330.894,560.068L329.394,562.588C331.164,564.148 333.894,565.018 336.504,565.018Z" style="fill:white;fill-rule:nonzero;"/>
            </g>
            <g transform="matrix(0.952471,-0.304628,0.304628,0.952471,-151.855,139.683)">
                <path d="M388.93,556.487L388.93,552.857L378.07,552.857L378.07,535.187L373.93,535.187L373.93,556.487L388.93,556.487Z" style="fill:white;fill-rule:nonzero;"/>
            </g>
            <g transform="matrix(0.923423,-0.383784,0.383784,0.923423,-179.513,194.85)">
                <path d="M404.36,547.261L404.36,531.541L400.34,531.541L400.34,547.261L404.36,547.261ZM404.36,529.351L404.36,525.361L400.34,525.361L400.34,529.351L404.36,529.351Z" style="fill:white;fill-rule:nonzero;"/>
            </g>
            <g transform="matrix(0.885569,-0.464508,0.464508,0.885569,-203.246,254.802)">
                <path d="M431.973,530.106C431.973,527.046 431.163,523.926 427.233,523.926C424.503,523.926 422.163,525.126 420.993,527.106L420.993,524.196L417.363,524.196L417.363,539.916L421.383,539.916L421.383,530.736C421.983,528.846 423.843,527.466 425.463,527.466C427.023,527.466 427.953,528.576 427.953,531.096L427.953,539.916L431.973,539.916L431.973,530.106Z" style="fill:white;fill-rule:nonzero;"/>
            </g>
            <g transform="matrix(0.833334,-0.55277,0.55277,0.833334,-217.074,331.489)">
                <path d="M441.956,525.721L455.096,525.721L455.096,522.901L446.246,522.901L454.946,512.461L454.946,510.001L442.316,510.001L442.316,512.821L450.716,512.821L441.956,523.261L441.956,525.721Z" style="fill:white;fill-rule:nonzero;"/>
            </g>
        </g>
    </g>
    <g transform="matrix(1,0,0,1,-6,14)">
        <path d="M376.25,221L330,221C328.278,220.936 327.994,220.77 327.26,220.482C324.483,219.392 322.615,216.563 322.5,213.5L322.5,141.5C322.635,137.879 325.326,134.62 328.882,134.084C329.376,134.009 329.502,134.019 330,134L438,134C438.187,134.007 438.374,134.014 438.56,134.021C440.273,134.214 440.543,134.4 441.254,134.743C443.78,135.959 445.394,138.669 445.5,141.5L445.5,213.5C445.436,215.222 445.27,215.505 444.982,216.24C443.892,219.016 441.063,220.885 438,221L391.75,221L391.75,232.779L415.75,232.779C415.787,232.785 421.356,233.726 422.803,237.73C424.374,242.076 421.028,247.57 416.056,247.773C415.954,247.777 415.852,247.777 415.75,247.779L384.25,247.779C384.165,247.777 384.08,247.774 383.996,247.77C383.914,247.774 383.832,247.777 383.75,247.779L352.25,247.779C345.752,247.647 341.797,237.351 348.723,233.66C349.533,233.228 350.423,232.947 351.334,232.835C351.638,232.798 351.944,232.785 352.25,232.779L376.25,232.779L376.25,221ZM430.5,149L337.5,149L337.5,206L430.5,206L430.5,149Z" style="fill:rgb(214,37,51);fill-rule:nonzero;"/>
    </g>
    <g transform="matrix(1,0,0,1,3,-4)">
        <path d="M257,445.5L149,445.5C147.278,445.436 146.994,445.27 146.26,444.982C143.484,443.892 141.615,441.063 141.5,438L141.5,329C141.564,327.278 141.73,326.994 142.018,326.26C143.108,323.484 145.937,321.615 149,321.5L257,321.5C257.187,321.507 257.374,321.514 257.56,321.521C260.966,321.905 263.909,324.52 264.416,327.882C264.491,328.376 264.481,328.502 264.5,329L264.5,438C264.365,441.621 261.674,444.88 258.118,445.416C257.624,445.491 257.498,445.481 257,445.5ZM249.5,336.5L156.5,336.5L156.5,430.5L249.5,430.5L249.5,336.5ZM235.199,353.745C238.64,354.09 239.122,355.023 240.116,356.076C242.749,358.864 242.69,363.646 239.967,366.529L195.419,411.077C194.424,412.018 194.065,412.196 193.37,412.531C190.847,413.746 187.655,413.404 185.44,411.638C185.147,411.404 185.084,411.334 184.813,411.077L166.033,392.298C164.829,391.023 164.59,390.45 164.237,389.414C162.619,384.664 167.048,378.722 172.51,379.587C174.063,379.833 175.499,380.614 176.64,381.691L190.116,395.167L229.36,355.923C229.36,355.923 232.346,353.623 235.199,353.745Z" style="fill:rgb(214,37,51);fill-rule:nonzero;"/>
    </g>
    <g transform="matrix(1,0,0,1,-5.95033,-3.85727)">
        <path d="M368.331,372.667L337.274,372.667C336.037,372.642 335.631,372.525 334.899,372.281C331.943,371.294 329.838,368.313 329.774,365.167L329.774,334.11C329.855,330.088 332.875,326.699 337.274,326.61C337.375,326.612 337.476,326.614 337.576,326.617C338.811,326.691 339.212,326.824 339.934,327.098C342.753,328.167 344.713,331.06 344.774,334.11L344.774,344.607C345.53,343.93 346.304,343.268 347.071,342.622C357.071,334.183 370.244,329.518 383.167,329.559C406.664,329.783 429.067,346.103 435.93,369.155C441.494,387.845 436.273,409.36 422.686,423.441C406.178,440.55 378.141,445.304 356.706,433.856C348.329,429.383 341.17,422.726 336.053,414.719C336.053,414.719 334.171,411.718 334.864,408.691C335.698,405.049 339.584,402.374 343.323,402.954C346.634,403.467 348.435,406.62 350.953,409.847C361.168,422.934 379.74,428.694 395.765,423.267C407.957,419.137 417.88,408.85 421.554,396.512C427.586,376.249 415.299,352.183 393.87,346.091C379.588,342.031 363.38,346.494 353.025,357.667L368.331,357.667C368.359,357.674 375.831,359.503 375.831,365.167C375.831,369.085 372.358,372.586 368.331,372.667Z" style="fill:white;fill-rule:nonzero;"/>
    </g>
    <g transform="matrix(1,0,0,1,3,-0.864386)">
        <path d="M186.875,254.5L120.625,254.5C114.899,254.5 110.25,249.851 110.25,244.125L110.25,223.375C110.25,217.649 114.126,215.194 120.625,213L133.014,210.008C137.971,215.958 145.422,219.738 153.75,219.738C162.078,219.738 169.529,215.958 174.486,210.008L186.875,213C193.405,214.702 197.25,217.649 197.25,223.375L197.25,244.125C197.25,249.851 192.601,254.5 186.875,254.5ZM229.39,242.251L201.763,242.251L201.953,240.368L201.953,219.618C201.953,217.471 201.412,215.714 200.4,214.282L202.89,214.441C209.552,214.441 215.514,211.417 219.479,206.657L229.39,209.051C234.614,210.412 237.69,212.77 237.69,217.351L237.69,233.951C237.69,238.477 234.059,242.162 229.39,242.251ZM264.291,233.052L242.19,233.052L242.342,231.546L242.342,214.946C242.342,213.228 241.909,211.823 241.099,210.677L243.091,210.805C248.421,210.805 253.19,208.385 256.362,204.577L264.291,206.492C268.47,207.581 270.931,209.467 270.931,213.132L270.931,226.412C270.931,230.033 268.026,232.981 264.291,233.052ZM153.75,167.008C166.854,167.008 177.492,177.646 177.492,190.75C177.492,203.854 166.854,214.492 153.75,214.492C140.646,214.492 130.008,203.854 130.008,190.75C130.008,177.646 140.646,167.008 153.75,167.008ZM201.89,171.257C212.373,171.257 220.884,179.768 220.884,190.251C220.884,200.734 212.373,209.244 201.89,209.244C191.407,209.244 182.896,200.734 182.896,190.251C182.896,179.768 191.407,171.257 201.89,171.257ZM242.091,175.257C250.478,175.257 257.286,182.066 257.286,190.452C257.286,198.838 250.478,205.647 242.091,205.647C233.705,205.647 226.896,198.838 226.896,190.452C226.896,182.066 233.705,175.257 242.091,175.257Z" style="fill:white;"/>
    </g>
</svg>
